<svg xmlns="http://www.w3.org/2000/svg" viewBox="0 0 286.36 218.83"><defs><style>.cls-1{fill:#fff;}</style></defs><title>자산 3</title><g id="레이어_2" data-name="레이어 2"><g id="Layer_1" data-name="Layer 1"><path class="cls-1" d="M121.46,46.64a41,41,0,0,0-16.73-17.52Q94,23.21,80,23.21a54.15,54.15,0,0,0-27.45,6.92A48.47,48.47,0,0,0,33.65,49.76q-6.81,12.72-6.81,29.46t6.81,29.57a48.27,48.27,0,0,0,18.86,19.75A54.12,54.12,0,0,0,80,135.45q20.75,0,33.7-11.6t15.84-31.46H71.25V72.08h85.46V91.93A76.61,76.61,0,0,1,80,158.43,80.12,80.12,0,0,1,40,148.28a75.67,75.67,0,0,1-28.67-28.23Q.74,102,.74,79.22t10.6-40.84A75.45,75.45,0,0,1,40.12,10.15,80.34,80.34,0,0,1,80,0Q104.72,0,124,12.16t28,34.48Z"/><path class="cls-1" d="M204.69,153.19a46.1,46.1,0,0,1-19.64-15.51,39.36,39.36,0,0,1-7.14-23.43h27.22a24.57,24.57,0,0,0,7.92,16.51q7,6.47,19.75,6.47,13.16,0,20.53-6.36a20.68,20.68,0,0,0,7.36-16.4q0-7.81-4.57-12.72a30.64,30.64,0,0,0-11.38-7.59,172.24,172.24,0,0,0-18.86-5.8,176.21,176.21,0,0,1-24.66-8.14,40.72,40.72,0,0,1-16.18-12.83q-6.69-8.7-6.7-23.21a41.25,41.25,0,0,1,6.7-23.43A42.76,42.76,0,0,1,203.8,5.36Q215.85,0,231.69,0q22.54,0,36.93,11.27t16,30.91H256.46q-.67-8.48-8-14.5t-19.41-6q-10.94,0-17.85,5.58t-6.92,16.07A16.3,16.3,0,0,0,208.59,55a30.7,30.7,0,0,0,11,7.25,171.12,171.12,0,0,0,18.3,5.8A191.6,191.6,0,0,1,263,76.54a41.82,41.82,0,0,1,16.51,13.05q6.8,8.82,6.81,23.54A42.32,42.32,0,0,1,280,135.45a45.87,45.87,0,0,1-18.52,16.85q-12.16,6.36-28.67,6.36A69.41,69.41,0,0,1,204.69,153.19Z"/><path class="cls-1" d="M1.87,197.6a13.32,13.32,0,0,1,5.08-5,14.18,14.18,0,0,1,7-1.79A14.28,14.28,0,0,1,21.76,193a12.23,12.23,0,0,1,4.94,6.08H21.3a7.23,7.23,0,0,0-3-3.23A8.76,8.76,0,0,0,14,194.77,9.56,9.56,0,0,0,9.14,196a8.51,8.51,0,0,0-3.33,3.5,12.36,12.36,0,0,0,0,10.63,8.63,8.63,0,0,0,3.33,3.52A9.43,9.43,0,0,0,14,214.89a8.76,8.76,0,0,0,4.37-1.06,7.23,7.23,0,0,0,3-3.23h5.4a12.12,12.12,0,0,1-4.94,6.06A14.38,14.38,0,0,1,14,218.79a14.14,14.14,0,0,1-7-1.79,13.36,13.36,0,0,1-5.06-5,14.82,14.82,0,0,1,0-14.41Z"/><path class="cls-1" d="M36.42,194.81v8h9.45v3.66H36.42v8.39H47.06v3.66H31.94V191.14H47.06v3.66Z"/><path class="cls-1" d="M66.79,218.55l-6.3-10.95H57.06v10.95H52.57V191.18H62a11.75,11.75,0,0,1,5.34,1.1,7.65,7.65,0,0,1,3.27,3,8,8,0,0,1,1.08,4.13,8.19,8.19,0,0,1-1.56,4.86,7.89,7.89,0,0,1-4.78,3l6.77,11.34ZM57.06,204h5a5.2,5.2,0,0,0,3.8-1.26,4.54,4.54,0,0,0,1.28-3.39A4.38,4.38,0,0,0,65.84,196a5.36,5.36,0,0,0-3.82-1.2h-5Z"/><path class="cls-1" d="M95.14,191.18v3.66H87.85v23.71H83.36V194.85H76v-3.66Z"/><path class="cls-1" d="M104.16,191.18v27.37H99.67V191.18Z"/><path class="cls-1" d="M126.17,191.18v3.66H114.55v8.07h9.06v3.66h-9.06v12h-4.49V191.18Z"/><path class="cls-1" d="M134.83,191.18v27.37h-4.49V191.18Z"/><path class="cls-1" d="M141.11,197.6a13.32,13.32,0,0,1,5.08-5A14.94,14.94,0,0,1,161,193a12.23,12.23,0,0,1,4.94,6.08h-5.4a7.23,7.23,0,0,0-3-3.23,8.76,8.76,0,0,0-4.37-1.06,9.56,9.56,0,0,0-4.84,1.22,8.51,8.51,0,0,0-3.33,3.5,12.36,12.36,0,0,0,0,10.63,8.63,8.63,0,0,0,3.33,3.52,9.43,9.43,0,0,0,4.84,1.24,8.76,8.76,0,0,0,4.37-1.06,7.23,7.23,0,0,0,3-3.23h5.4a12.12,12.12,0,0,1-4.94,6.06,14.38,14.38,0,0,1-7.78,2.13,14.14,14.14,0,0,1-7-1.79,13.36,13.36,0,0,1-5.06-5,14.82,14.82,0,0,1,0-14.41Z"/><path class="cls-1" d="M187.68,213H176.22l-2,5.59h-4.69l9.81-27.41h5.2l9.8,27.41h-4.73Zm-1.26-3.66L182,196.58l-4.49,12.72Z"/><path class="cls-1" d="M216.31,191.18v3.66H209v23.71h-4.49V194.85h-7.32v-3.66Z"/><path class="cls-1" d="M225.32,191.18v27.37h-4.49V191.18Z"/><path class="cls-1" d="M236.68,217a13.28,13.28,0,0,1-5.08-5,14.86,14.86,0,0,1,0-14.43,13.32,13.32,0,0,1,5.08-5,14.76,14.76,0,0,1,14.1,0,13.18,13.18,0,0,1,5.06,5,15,15,0,0,1,0,14.43,13.14,13.14,0,0,1-5.06,5,14.76,14.76,0,0,1-14.1,0Zm11.87-3.35a8.6,8.6,0,0,0,3.33-3.54,11.38,11.38,0,0,0,1.2-5.34,11.26,11.26,0,0,0-1.2-5.32,8.5,8.5,0,0,0-3.33-3.5,10.22,10.22,0,0,0-9.69,0,8.51,8.51,0,0,0-3.33,3.5,11.25,11.25,0,0,0-1.2,5.32,11.37,11.37,0,0,0,1.2,5.34,8.6,8.6,0,0,0,3.33,3.54,10.08,10.08,0,0,0,9.69,0Z"/><path class="cls-1" d="M284.59,218.55H280.1l-13.51-20.44v20.44H262.1V191.14h4.49l13.51,20.4v-20.4h4.49Z"/></g></g></svg>