<svg xmlns="http://www.w3.org/2000/svg" viewBox="0 0 836.37 276.33"><defs><style>.cls-1{fill:#fff;}</style></defs><title>자산 14</title><g id="레이어_2" data-name="레이어 2"><g id="Layer_1" data-name="Layer 1"><path class="cls-1" d="M5.85,29.55A41.64,41.64,0,0,1,21.74,14a44.33,44.33,0,0,1,22-5.6A44.66,44.66,0,0,1,68,15.08a38.23,38.23,0,0,1,15.45,19H66.62A22.62,22.62,0,0,0,57.38,24a27.4,27.4,0,0,0-13.67-3.33A29.88,29.88,0,0,0,28.57,24.5a26.58,26.58,0,0,0-10.41,11,35.19,35.19,0,0,0-3.76,16.62,35.18,35.18,0,0,0,3.76,16.62,27,27,0,0,0,10.41,11,29.5,29.5,0,0,0,15.15,3.88,27.4,27.4,0,0,0,13.67-3.33,22.61,22.61,0,0,0,9.24-10.1H83.49A37.9,37.9,0,0,1,68,89.15,45,45,0,0,1,43.72,95.8a44.22,44.22,0,0,1-22-5.6A41.76,41.76,0,0,1,5.85,74.62,43.7,43.7,0,0,1,0,52.09,43.7,43.7,0,0,1,5.85,29.55Z"/><path class="cls-1" d="M113.91,3.94V95.07h-14V3.94Z"/><path class="cls-1" d="M144.45,91.8a31.39,31.39,0,0,1-12.19-12.31,37.15,37.15,0,0,1-4.43-18.41,36.44,36.44,0,0,1,4.56-18.35,31.48,31.48,0,0,1,12.44-12.31,38.12,38.12,0,0,1,35.22,0,31.49,31.49,0,0,1,12.44,12.31A36.45,36.45,0,0,1,197,61.08a35.68,35.68,0,0,1-4.68,18.35A32.4,32.4,0,0,1,179.6,91.8a36.73,36.73,0,0,1-17.79,4.37A34.74,34.74,0,0,1,144.45,91.8ZM172,81.4a19.71,19.71,0,0,0,7.7-7.76,24.94,24.94,0,0,0,3-12.56,25.47,25.47,0,0,0-2.83-12.5,19.14,19.14,0,0,0-7.51-7.7,20.55,20.55,0,0,0-10.1-2.59,20.2,20.2,0,0,0-10,2.59,18.45,18.45,0,0,0-7.33,7.7,26.41,26.41,0,0,0-2.71,12.5q0,11,5.6,16.93a18.51,18.51,0,0,0,14.1,6A20.89,20.89,0,0,0,172,81.4Z"/><path class="cls-1" d="M272.39,27.21V95.07h-14v-8a22.71,22.71,0,0,1-8.68,6.59,27.53,27.53,0,0,1-11.39,2.4,30.42,30.42,0,0,1-14.35-3.33,24,24,0,0,1-10-9.85,32,32,0,0,1-3.63-15.76V27.21h13.92V65q0,9.11,4.56,14t12.44,4.86q7.88,0,12.5-4.86t4.62-14V27.21Z"/><path class="cls-1" d="M290.43,42.73a31,31,0,0,1,27.89-16.62A31.83,31.83,0,0,1,331.43,29a26.84,26.84,0,0,1,10.28,7.7V3.94h14.16V95.07H341.72V84.84A26.28,26.28,0,0,1,332.17,93a29.62,29.62,0,0,1-14,3.2A30.35,30.35,0,0,1,302,91.68a31.7,31.7,0,0,1-11.57-12.56,38.62,38.62,0,0,1-4.25-18.29A37.55,37.55,0,0,1,290.43,42.73Zm48.39,6.16A20.34,20.34,0,0,0,331.25,41a19.83,19.83,0,0,0-10.1-2.71A19.91,19.91,0,0,0,303.48,48.7a24.22,24.22,0,0,0-2.89,12.13,25.27,25.27,0,0,0,2.89,12.31,20.39,20.39,0,0,0,7.63,8.07,19.58,19.58,0,0,0,10,2.77,19.81,19.81,0,0,0,10.1-2.71,20.21,20.21,0,0,0,7.57-7.94,24.94,24.94,0,0,0,2.89-12.25A24.59,24.59,0,0,0,338.82,48.89Z"/><path class="cls-1" d="M420.4,9.48V95.07h-14V9.48Z"/><path class="cls-1" d="M487.45,29.43a23.66,23.66,0,0,1,9.91,9.85A32.41,32.41,0,0,1,500.94,55v40H487V57.14q0-9.11-4.56-14T470,38.3q-7.88,0-12.5,4.86t-4.62,14V95.07h-14V27.21h14V35a23.25,23.25,0,0,1,8.8-6.53,28.16,28.16,0,0,1,11.39-2.34A30.44,30.44,0,0,1,487.45,29.43Z"/><path class="cls-1" d="M547.24,38.67H534.68v56.4H520.51V38.67h-8V27.21h8v-4.8q0-11.7,6.22-17.05T546.25,0V11.7q-6.4,0-9,2.4t-2.59,8.31v4.8h12.56Z"/><path class="cls-1" d="M581.9,29A24.22,24.22,0,0,1,594,26.11V40.64h-3.57q-8.25,0-12.5,4.19t-4.25,14.53V95.07h-14V27.21h14v9.85A22,22,0,0,1,581.9,29Z"/><path class="cls-1" d="M606.53,42.73a31,31,0,0,1,27.77-16.62,29.62,29.62,0,0,1,14,3.14,28.37,28.37,0,0,1,9.54,7.82V27.21H672V95.07H657.81V85a27.87,27.87,0,0,1-9.73,8,31.48,31.48,0,0,1-30-1.29,31.85,31.85,0,0,1-11.51-12.56,38.62,38.62,0,0,1-4.25-18.29A37.55,37.55,0,0,1,606.53,42.73Zm48.4,6.16A20.34,20.34,0,0,0,647.35,41a19.83,19.83,0,0,0-10.1-2.71,20.17,20.17,0,0,0-10.1,2.65,20,20,0,0,0-7.57,7.76,24.21,24.21,0,0,0-2.89,12.13,25.26,25.26,0,0,0,2.89,12.31,20.39,20.39,0,0,0,7.63,8.07,19.58,19.58,0,0,0,10,2.77,19.81,19.81,0,0,0,10.1-2.71,20.21,20.21,0,0,0,7.57-7.94,24.93,24.93,0,0,0,2.89-12.25A24.59,24.59,0,0,0,654.92,48.89Z"/><path class="cls-1" d="M94.82,157.25v85.58h-14V184.22L54.68,242.84H44.95L18.72,184.22v58.62h-14V157.25H19.83l30,67.11L79.8,157.25Z"/><path class="cls-1" d="M112.86,190.5a31,31,0,0,1,27.77-16.62,29.62,29.62,0,0,1,14,3.14,28.38,28.38,0,0,1,9.54,7.82V175h14.16v67.85H164.15v-10.1a27.9,27.9,0,0,1-9.73,8,31.48,31.48,0,0,1-30-1.29,31.85,31.85,0,0,1-11.51-12.56,38.63,38.63,0,0,1-4.25-18.29A37.56,37.56,0,0,1,112.86,190.5Zm48.39,6.16a20.33,20.33,0,0,0-7.57-7.88,19.83,19.83,0,0,0-10.1-2.71,19.91,19.91,0,0,0-17.67,10.41A24.22,24.22,0,0,0,123,208.6a25.27,25.27,0,0,0,2.89,12.31,20.4,20.4,0,0,0,7.63,8.07,19.59,19.59,0,0,0,10,2.77,19.81,19.81,0,0,0,10.1-2.71,20.2,20.2,0,0,0,7.57-7.94,24.94,24.94,0,0,0,2.89-12.25A24.59,24.59,0,0,0,161.25,196.66Z"/><path class="cls-1" d="M245.36,177.2a23.67,23.67,0,0,1,9.91,9.85,32.43,32.43,0,0,1,3.57,15.76v40H244.93V204.91q0-9.11-4.56-14t-12.44-4.86q-7.88,0-12.5,4.86t-4.62,14v37.93h-14V175h14v7.76a23.24,23.24,0,0,1,8.8-6.53A28.16,28.16,0,0,1,231,173.88,30.43,30.43,0,0,1,245.36,177.2Z"/><path class="cls-1" d="M276.27,190.5A31,31,0,0,1,304,173.88,29.62,29.62,0,0,1,318,177a28.38,28.38,0,0,1,9.54,7.82V175h14.16v67.85H327.56v-10.1a27.89,27.89,0,0,1-9.73,8,31.48,31.48,0,0,1-30-1.29,31.85,31.85,0,0,1-11.51-12.56A38.62,38.62,0,0,1,272,208.6,37.55,37.55,0,0,1,276.27,190.5Zm48.39,6.16a20.34,20.34,0,0,0-7.57-7.88,19.83,19.83,0,0,0-10.1-2.71,19.91,19.91,0,0,0-17.67,10.41,24.22,24.22,0,0,0-2.89,12.13,25.27,25.27,0,0,0,2.89,12.31A20.39,20.39,0,0,0,297,229a19.58,19.58,0,0,0,10,2.77,19.81,19.81,0,0,0,10.1-2.71,20.21,20.21,0,0,0,7.57-7.94,24.94,24.94,0,0,0,2.89-12.25A24.59,24.59,0,0,0,324.66,196.66Z"/><path class="cls-1" d="M401.5,177a26.83,26.83,0,0,1,9.54,7.82V175h14.16v69a34.68,34.68,0,0,1-3.94,16.69,28.49,28.49,0,0,1-11.39,11.51q-7.45,4.19-17.79,4.19-13.79,0-22.9-6.47a23.84,23.84,0,0,1-10.34-17.55h13.91a15.1,15.1,0,0,0,6.83,8.56,23.15,23.15,0,0,0,12.5,3.26q8.5,0,13.73-5.17t5.23-15V232.62a28.61,28.61,0,0,1-9.67,8.07,28.9,28.9,0,0,1-13.85,3.26,30.35,30.35,0,0,1-16.19-4.5,31.7,31.7,0,0,1-11.58-12.56,38.62,38.62,0,0,1-4.25-18.29,37.55,37.55,0,0,1,4.25-18.1,31,31,0,0,1,27.77-16.62A30.09,30.09,0,0,1,401.5,177Zm6.65,19.64a20.34,20.34,0,0,0-7.57-7.88,19.83,19.83,0,0,0-10.1-2.71,20.17,20.17,0,0,0-10.1,2.65,20,20,0,0,0-7.57,7.76,24.21,24.21,0,0,0-2.89,12.13,25.26,25.26,0,0,0,2.89,12.31,20.39,20.39,0,0,0,7.63,8.07,19.58,19.58,0,0,0,10,2.77,19.81,19.81,0,0,0,10.1-2.71,20.21,20.21,0,0,0,7.57-7.94A24.93,24.93,0,0,0,411,208.85,24.59,24.59,0,0,0,408.15,196.66Z"/><path class="cls-1" d="M505.37,214.14H453.53a18.82,18.82,0,0,0,6,13.05,19,19,0,0,0,13.3,4.92q11.33,0,16-9.48H504A30.56,30.56,0,0,1,492.87,238q-8.07,6-20,6a34.64,34.64,0,0,1-17.42-4.37,31.09,31.09,0,0,1-12.07-12.31A37.57,37.57,0,0,1,439,208.85a38.46,38.46,0,0,1,4.25-18.41,29.88,29.88,0,0,1,11.95-12.25,35.55,35.55,0,0,1,17.67-4.31A34.57,34.57,0,0,1,490,178.06a29.6,29.6,0,0,1,11.7,11.76,35.43,35.43,0,0,1,4.19,17.42A44,44,0,0,1,505.37,214.14Zm-14.16-11.33a16,16,0,0,0-5.54-12.44,19.82,19.82,0,0,0-13.42-4.68,18,18,0,0,0-12.44,4.62,19.3,19.3,0,0,0-6.16,12.5Z"/><path class="cls-1" d="M616.14,177.2a24,24,0,0,1,10,9.85,32,32,0,0,1,3.63,15.76v40H615.83V204.91q0-9.11-4.56-14t-12.44-4.86q-7.88,0-12.5,4.86t-4.62,14v37.93H567.8V204.91q0-9.11-4.56-14t-12.44-4.86q-7.88,0-12.5,4.86t-4.62,14v37.93h-14V175h14v7.76a23.34,23.34,0,0,1,8.74-6.53,27.73,27.73,0,0,1,11.33-2.34,30.17,30.17,0,0,1,14.53,3.45,23.59,23.59,0,0,1,9.85,10,22.74,22.74,0,0,1,9.6-9.79,28.42,28.42,0,0,1,14-3.63A30.43,30.43,0,0,1,616.14,177.2Z"/><path class="cls-1" d="M709.29,214.14H657.45a18.82,18.82,0,0,0,6,13.05,19,19,0,0,0,13.3,4.92q11.33,0,16-9.48h15.15A30.56,30.56,0,0,1,696.79,238q-8.07,6-20,6a34.64,34.64,0,0,1-17.42-4.37,31.07,31.07,0,0,1-12.07-12.31,37.55,37.55,0,0,1-4.37-18.41,38.45,38.45,0,0,1,4.25-18.41,29.87,29.87,0,0,1,11.94-12.25,35.55,35.55,0,0,1,17.67-4.31,34.57,34.57,0,0,1,17.12,4.19,29.6,29.6,0,0,1,11.7,11.76,35.43,35.43,0,0,1,4.19,17.42A44.14,44.14,0,0,1,709.29,214.14Zm-14.16-11.33a16,16,0,0,0-5.54-12.44,19.82,19.82,0,0,0-13.42-4.68,18,18,0,0,0-12.44,4.62,19.3,19.3,0,0,0-6.16,12.5Z"/><path class="cls-1" d="M772.16,177.2a23.66,23.66,0,0,1,9.91,9.85,32.4,32.4,0,0,1,3.57,15.76v40H771.72V204.91q0-9.11-4.56-14t-12.44-4.86q-7.88,0-12.5,4.86t-4.62,14v37.93h-14V175h14v7.76a23.25,23.25,0,0,1,8.8-6.53,28.16,28.16,0,0,1,11.39-2.34A30.44,30.44,0,0,1,772.16,177.2Z"/><path class="cls-1" d="M819.87,186.44V224q0,3.82,1.79,5.48t6.1,1.66h8.62v11.7H825.29q-9.48,0-14.53-4.43t-5-14.41V186.44h-8V175h8V158.11h14.16V175h16.5v11.45Z"/></g></g></svg>