<svg xmlns="http://www.w3.org/2000/svg" viewBox="0 0 805.91 148.31"><defs><style>.cls-1{fill:#fff;}</style></defs><title>자산 5</title><g id="레이어_2" data-name="레이어 2"><g id="Layer_1" data-name="Layer 1"><path class="cls-1" d="M75.84,146.53,22.57,84.95v61.58H0V8.91H22.57V71.68L76,8.91h28.32L44.55,77.82l60.79,68.71Z"/><path class="cls-1" d="M209.1,65.34v19H127.72v-19Z"/><path class="cls-1" d="M243.06,41.19a66.94,66.94,0,0,1,25.54-25,71.28,71.28,0,0,1,35.34-9q22,0,39.11,10.79t24.85,30.59H340.78a36.38,36.38,0,0,0-14.85-16.24,44.07,44.07,0,0,0-22-5.35,48.06,48.06,0,0,0-24.36,6.14,42.74,42.74,0,0,0-16.73,17.62q-6,11.49-6,26.73t6,26.73a43.37,43.37,0,0,0,16.73,17.72,47.44,47.44,0,0,0,24.36,6.24,44.07,44.07,0,0,0,22-5.35,36.37,36.37,0,0,0,14.85-16.24h27.13q-7.72,19.8-24.85,30.49t-39.11,10.69a71.1,71.1,0,0,1-35.44-9,67.16,67.16,0,0,1-25.44-25q-9.41-16-9.41-36.24T243.06,41.19Z"/><path class="cls-1" d="M416.82,0V146.53H394.24V0Z"/><path class="cls-1" d="M465.92,141.28a50.48,50.48,0,0,1-19.6-19.8q-7.13-12.77-7.13-29.6,0-16.63,7.33-29.5a50.61,50.61,0,0,1,20-19.8,61.31,61.31,0,0,1,56.63,0,50.64,50.64,0,0,1,20,19.8q7.32,12.87,7.33,29.5t-7.53,29.5a52.1,52.1,0,0,1-20.49,19.9,59.07,59.07,0,0,1-28.61,7A55.87,55.87,0,0,1,465.92,141.28Zm44.26-16.73a31.71,31.71,0,0,0,12.38-12.47q4.75-8.32,4.75-20.2t-4.55-20.1A30.78,30.78,0,0,0,510.67,59.4a33,33,0,0,0-16.24-4.16A32.48,32.48,0,0,0,478.3,59.4a29.68,29.68,0,0,0-11.78,12.38q-4.36,8.22-4.36,20.1,0,17.63,9,27.23a29.76,29.76,0,0,0,22.67,9.6A33.6,33.6,0,0,0,510.18,124.55Z"/><path class="cls-1" d="M671.66,37.42V146.53H649.08V133.66a36.52,36.52,0,0,1-14,10.59,44.27,44.27,0,0,1-18.32,3.86,48.92,48.92,0,0,1-23.07-5.35,38.59,38.59,0,0,1-16-15.84q-5.84-10.49-5.84-25.35V37.42h22.38V98.21q0,14.66,7.33,22.47t20,7.82q12.67,0,20.1-7.82t7.42-22.47V37.42Z"/><path class="cls-1" d="M700.66,62.37a49.78,49.78,0,0,1,44.85-26.73A51.21,51.21,0,0,1,766.6,40.3a43.17,43.17,0,0,1,16.53,12.38V0h22.77V146.53H783.13V130.09a42.25,42.25,0,0,1-15.35,13.07,47.63,47.63,0,0,1-22.47,5.15,48.81,48.81,0,0,1-26-7.23,51,51,0,0,1-18.61-20.2,62.12,62.12,0,0,1-6.83-29.41Q693.83,75,700.66,62.37Zm77.82,9.9A32.69,32.69,0,0,0,766.3,59.6a31.89,31.89,0,0,0-16.24-4.36,32.44,32.44,0,0,0-16.24,4.26A32.11,32.11,0,0,0,721.65,72Q717,80.2,717,91.48a40.63,40.63,0,0,0,4.65,19.8,32.81,32.81,0,0,0,12.28,13,31.49,31.49,0,0,0,16.14,4.46,31.86,31.86,0,0,0,16.24-4.36,32.49,32.49,0,0,0,12.18-12.77,40.1,40.1,0,0,0,4.65-19.7A39.53,39.53,0,0,0,778.48,72.28Z"/></g></g></svg>