<svg xmlns="http://www.w3.org/2000/svg" viewBox="0 0 369.32 295.99"><defs><style>.cls-1{fill:#fff;}</style></defs><title>자산 8</title><g id="레이어_2" data-name="레이어 2"><g id="Layer_1" data-name="Layer 1"><path class="cls-1" d="M14.09,11.61l.12,25.12,29.55-.14L43.81,48l-29.55.14.12,26.23,33.25-.15.05,11.45L.4,85.93,0,.22,47.29,0l.05,11.45Z"/><path class="cls-1" d="M113.2,19.77a23.66,23.66,0,0,1,10,9.8,32.42,32.42,0,0,1,3.64,15.75l.19,40-13.91.06-.18-37.93q0-9.11-4.62-14T95.81,28.71q-7.88,0-12.48,4.92t-4.55,14L79,85.56l-14,.06-.31-67.85,14-.07,0,7.76a23.25,23.25,0,0,1,8.77-6.57,28.16,28.16,0,0,1,11.38-2.39A30.43,30.43,0,0,1,113.2,19.77Z"/><path class="cls-1" d="M161,28.78l.17,37.56q0,3.82,1.81,5.47t6.1,1.63l8.62,0,.05,11.7-11.08.05q-9.48,0-14.55-4.37T147,66.4l-.17-37.56-8,0-.05-11.45,8,0L146.66.52,160.82.46l.08,16.87,16.5-.08.05,11.45Z"/><path class="cls-1" d="M252.21,56.06l-51.84.24a18.82,18.82,0,0,0,6.09,13,19,19,0,0,0,13.32,4.86q11.33-.05,16-9.56l15.15-.07A30.56,30.56,0,0,1,239.82,80q-8,6-20,6.07a34.64,34.64,0,0,1-17.44-4.29,31.08,31.08,0,0,1-12.13-12.26,37.56,37.56,0,0,1-4.46-18.39A38.45,38.45,0,0,1,190,32.65a29.88,29.88,0,0,1,11.89-12.31,35.54,35.54,0,0,1,17.65-4.39,34.57,34.57,0,0,1,17.14,4.11A29.6,29.6,0,0,1,248.4,31.76a35.43,35.43,0,0,1,4.27,17.41A44.13,44.13,0,0,1,252.21,56.06ZM238,44.8a16,16,0,0,0-5.6-12.41,19.82,19.82,0,0,0-13.44-4.62,18,18,0,0,0-12.42,4.68A19.3,19.3,0,0,0,200.43,45Z"/><path class="cls-1" d="M288.54,18.52a24.24,24.24,0,0,1,12.12-2.95l.07,14.53-3.57,0q-8.25,0-12.48,4.25T280.5,48.92l.17,35.71-14,.06-.31-67.85,14-.07,0,9.85A22,22,0,0,1,288.54,18.52Z"/><path class="cls-1" d="M368.93,166.15l-18,.08.39,83.55A12.35,12.35,0,0,1,339,262.18l-79.11.37-.06-13.67-45.23,21.54L260.09,296,260,280.55l79.11-.37a30.37,30.37,0,0,0,30.19-30.47Z"/></g></g></svg>