<svg xmlns="http://www.w3.org/2000/svg" viewBox="0 0 1014.3 243.7"><defs><style>.cls-1{fill:#fff;}</style></defs><title>자산 4</title><g id="레이어_2" data-name="레이어 2"><g id="Layer_1" data-name="Layer 1"><path class="cls-1" d="M56.65,77.33H20.81L14.65,94.82H0L30.66,9.11H46.92L77.58,94.82H62.8ZM52.7,65.88,38.79,26.11l-14,39.78Z"/><path class="cls-1" d="M104.92,3.69V94.82h-14V3.69Z"/><path class="cls-1" d="M137.42,3.69V94.82h-14V3.69Z"/><path class="cls-1" d="M188.65,15.39A8.69,8.69,0,0,1,186.06,9a8.83,8.83,0,0,1,9-9,8.55,8.55,0,0,1,6.28,2.59A8.7,8.7,0,0,1,203.92,9a8.69,8.69,0,0,1-2.59,6.4A8.55,8.55,0,0,1,195.05,18,8.7,8.7,0,0,1,188.65,15.39ZM201.95,27V94.82h-14V27Z"/><path class="cls-1" d="M269,29.18A23.66,23.66,0,0,1,278.91,39a32.42,32.42,0,0,1,3.57,15.76v40H268.57V56.89q0-9.11-4.56-14t-12.44-4.86q-7.88,0-12.5,4.86t-4.62,14V94.82h-14V27h14v7.76a23.25,23.25,0,0,1,8.8-6.53,28.16,28.16,0,0,1,11.39-2.34A30.43,30.43,0,0,1,269,29.18Z"/><path class="cls-1" d="M344.42,91.56a31.4,31.4,0,0,1-12.19-12.31,37.15,37.15,0,0,1-4.43-18.41,36.43,36.43,0,0,1,4.56-18.35,31.47,31.47,0,0,1,12.44-12.31,38.12,38.12,0,0,1,35.22,0,31.49,31.49,0,0,1,12.44,12.31A36.45,36.45,0,0,1,397,60.83a35.69,35.69,0,0,1-4.68,18.35,32.4,32.4,0,0,1-12.75,12.38,36.74,36.74,0,0,1-17.79,4.37A34.74,34.74,0,0,1,344.42,91.56Zm27.52-10.41a19.71,19.71,0,0,0,7.7-7.76,24.94,24.94,0,0,0,3-12.56,25.47,25.47,0,0,0-2.83-12.5,19.14,19.14,0,0,0-7.51-7.7,20.55,20.55,0,0,0-10.1-2.59,20.2,20.2,0,0,0-10,2.59,18.46,18.46,0,0,0-7.33,7.7,26.41,26.41,0,0,0-2.71,12.5q0,11,5.6,16.93a18.51,18.51,0,0,0,14.1,6A20.89,20.89,0,0,0,371.94,81.15Z"/><path class="cls-1" d="M459.5,29.18A23.66,23.66,0,0,1,469.41,39,32.42,32.42,0,0,1,473,54.8v40H459.07V56.89q0-9.11-4.56-14t-12.44-4.86q-7.88,0-12.5,4.86t-4.62,14V94.82h-14V27h14v7.76a23.25,23.25,0,0,1,8.8-6.53,28.16,28.16,0,0,1,11.39-2.34A30.43,30.43,0,0,1,459.5,29.18Z"/><path class="cls-1" d="M552.53,66.13H500.69a18.82,18.82,0,0,0,6,13.05A19,19,0,0,0,520,84.11q11.33,0,16-9.48h15.15A30.56,30.56,0,0,1,540,90q-8.07,6-20,6a34.64,34.64,0,0,1-17.42-4.37,31.08,31.08,0,0,1-12.07-12.31,37.56,37.56,0,0,1-4.37-18.41,38.45,38.45,0,0,1,4.25-18.41,29.87,29.87,0,0,1,11.94-12.25A35.55,35.55,0,0,1,520,25.86,34.57,34.57,0,0,1,537.14,30a29.6,29.6,0,0,1,11.7,11.76A35.43,35.43,0,0,1,553,59.23,44.09,44.09,0,0,1,552.53,66.13ZM538.37,54.8a16,16,0,0,0-5.54-12.44,19.82,19.82,0,0,0-13.42-4.68A18,18,0,0,0,507,42.3a19.3,19.3,0,0,0-6.16,12.5Z"/><path class="cls-1" d="M655.6,47a23.07,23.07,0,0,1-9.85,9.42q-6.77,3.63-17.36,3.63H612.87V94.82h-14V9.24h29.55q9.85,0,16.69,3.39a23.56,23.56,0,0,1,10.22,9.17,25.14,25.14,0,0,1,3.39,12.93A25.85,25.85,0,0,1,655.6,47Zm-15.27-2q3.94-3.63,3.94-10.28,0-14-15.89-14H612.87v28h15.52Q636.39,48.64,640.33,45Z"/><path class="cls-1" d="M694.32,28.75a24.22,24.22,0,0,1,12.13-2.89V40.39h-3.57q-8.25,0-12.5,4.19t-4.25,14.53V94.82h-14V27h14v9.85A22,22,0,0,1,694.32,28.75Z"/><path class="cls-1" d="M720.12,15.39A8.69,8.69,0,0,1,717.54,9a8.83,8.83,0,0,1,9-9,8.55,8.55,0,0,1,6.28,2.59A8.7,8.7,0,0,1,735.39,9a8.69,8.69,0,0,1-2.59,6.4A8.55,8.55,0,0,1,726.52,18,8.7,8.7,0,0,1,720.12,15.39ZM733.42,27V94.82h-14V27Z"/><path class="cls-1" d="M778.12,82.26,797.33,27h14.9L786.37,94.82H769.62L743.89,27h15Z"/><path class="cls-1" d="M822.39,42.48a31,31,0,0,1,27.77-16.62,29.62,29.62,0,0,1,14,3.14,28.38,28.38,0,0,1,9.54,7.82V27h14.16V94.82H873.68V84.72a27.88,27.88,0,0,1-9.73,8,31.48,31.48,0,0,1-30-1.29,31.85,31.85,0,0,1-11.51-12.56,38.63,38.63,0,0,1-4.25-18.29A37.55,37.55,0,0,1,822.39,42.48Zm48.39,6.16a20.34,20.34,0,0,0-7.57-7.88,19.83,19.83,0,0,0-10.1-2.71,19.91,19.91,0,0,0-17.67,10.41,24.21,24.21,0,0,0-2.89,12.13,25.26,25.26,0,0,0,2.89,12.31A20.39,20.39,0,0,0,843.08,81a19.58,19.58,0,0,0,10,2.77A19.81,19.81,0,0,0,863.21,81a20.21,20.21,0,0,0,7.57-7.94,24.94,24.94,0,0,0,2.89-12.25A24.59,24.59,0,0,0,870.78,48.64Z"/><path class="cls-1" d="M922.69,38.42V76q0,3.82,1.79,5.48t6.1,1.66h8.62v11.7H928.11q-9.48,0-14.53-4.43t-5-14.41V38.42h-8V27h8V10.1h14.16V27h16.5V38.42Z"/><path class="cls-1" d="M1013.81,66.13H962a18.82,18.82,0,0,0,6,13.05,19,19,0,0,0,13.3,4.92q11.33,0,16-9.48h15.15A30.56,30.56,0,0,1,1001.31,90q-8.07,6-20,6a34.64,34.64,0,0,1-17.42-4.37,31.08,31.08,0,0,1-12.07-12.31,37.56,37.56,0,0,1-4.37-18.41,38.45,38.45,0,0,1,4.25-18.41,29.87,29.87,0,0,1,11.94-12.25,35.55,35.55,0,0,1,17.67-4.31A34.57,34.57,0,0,1,998.42,30a29.6,29.6,0,0,1,11.7,11.76,35.43,35.43,0,0,1,4.19,17.42A44.07,44.07,0,0,1,1013.81,66.13ZM999.65,54.8a16,16,0,0,0-5.54-12.44,19.82,19.82,0,0,0-13.42-4.68,18,18,0,0,0-12.44,4.62,19.3,19.3,0,0,0-6.16,12.5Z"/><path class="cls-1" d="M6.22,177.08A41.63,41.63,0,0,1,22.1,161.5a44.33,44.33,0,0,1,22-5.6,44.66,44.66,0,0,1,24.32,6.71,38.22,38.22,0,0,1,15.45,19H67a22.62,22.62,0,0,0-9.24-10.1,27.4,27.4,0,0,0-13.67-3.33A29.88,29.88,0,0,0,28.94,172a26.58,26.58,0,0,0-10.41,11,38.67,38.67,0,0,0,0,33.25,27,27,0,0,0,10.41,11,29.5,29.5,0,0,0,15.15,3.88,27.4,27.4,0,0,0,13.67-3.33A22.61,22.61,0,0,0,67,217.71H83.86a37.89,37.89,0,0,1-15.45,19,45,45,0,0,1-24.32,6.65,44.22,44.22,0,0,1-22-5.6A41.76,41.76,0,0,1,6.22,222.15a46.33,46.33,0,0,1,0-45.07Z"/><path class="cls-1" d="M114.28,151.46v91.13h-14V151.46Z"/><path class="cls-1" d="M144.81,239.33A31.4,31.4,0,0,1,132.62,227a37.15,37.15,0,0,1-4.43-18.41,36.43,36.43,0,0,1,4.56-18.35,31.47,31.47,0,0,1,12.44-12.31,38.12,38.12,0,0,1,35.22,0,31.49,31.49,0,0,1,12.44,12.31,36.45,36.45,0,0,1,4.56,18.35A35.69,35.69,0,0,1,192.72,227,32.4,32.4,0,0,1,180,239.33a36.74,36.74,0,0,1-17.79,4.37A34.74,34.74,0,0,1,144.81,239.33Zm27.52-10.41a19.71,19.71,0,0,0,7.7-7.76,24.94,24.94,0,0,0,3-12.56,25.47,25.47,0,0,0-2.83-12.5,19.14,19.14,0,0,0-7.51-7.7,20.55,20.55,0,0,0-10.1-2.59,20.2,20.2,0,0,0-10,2.59,18.46,18.46,0,0,0-7.33,7.7,26.41,26.41,0,0,0-2.71,12.5q0,11,5.6,16.93a18.51,18.51,0,0,0,14.1,6A20.89,20.89,0,0,0,172.34,228.92Z"/><path class="cls-1" d="M272.76,174.74v67.85h-14v-8a22.71,22.71,0,0,1-8.68,6.59,27.54,27.54,0,0,1-11.39,2.4,30.42,30.42,0,0,1-14.35-3.33,24,24,0,0,1-10-9.85,31.94,31.94,0,0,1-3.63-15.76v-39.9h13.92v37.8q0,9.11,4.56,14t12.44,4.86q7.88,0,12.5-4.86t4.62-14v-37.8Z"/><path class="cls-1" d="M290.8,190.25a31,31,0,0,1,27.89-16.62,31.83,31.83,0,0,1,13.11,2.89,26.84,26.84,0,0,1,10.28,7.7V151.46h14.16v91.13H342.08V232.37a26.28,26.28,0,0,1-9.54,8.13,29.62,29.62,0,0,1-14,3.2,30.35,30.35,0,0,1-16.19-4.5,31.7,31.7,0,0,1-11.58-12.56,38.63,38.63,0,0,1-4.25-18.29A37.55,37.55,0,0,1,290.8,190.25Zm48.39,6.16a20.34,20.34,0,0,0-7.57-7.88,19.83,19.83,0,0,0-10.1-2.71,19.91,19.91,0,0,0-17.67,10.41A24.21,24.21,0,0,0,301,208.36a25.26,25.26,0,0,0,2.89,12.31,20.39,20.39,0,0,0,7.63,8.07,19.58,19.58,0,0,0,10,2.77,19.81,19.81,0,0,0,10.1-2.71,20.21,20.21,0,0,0,7.57-7.94,24.94,24.94,0,0,0,2.89-12.25A24.59,24.59,0,0,0,339.19,196.41Z"/><path class="cls-1" d="M419.42,240.43a25.44,25.44,0,0,1-10.84-8.56,21.72,21.72,0,0,1-3.94-12.93h15a13.55,13.55,0,0,0,4.37,9.11q3.88,3.57,10.9,3.57,7.26,0,11.33-3.51a11.41,11.41,0,0,0,4.06-9.05,9.89,9.89,0,0,0-2.52-7,16.92,16.92,0,0,0-6.28-4.19,95.24,95.24,0,0,0-10.41-3.2,97.15,97.15,0,0,1-13.61-4.5,22.47,22.47,0,0,1-8.93-7.08q-3.69-4.8-3.69-12.81a22.76,22.76,0,0,1,3.69-12.93,23.59,23.59,0,0,1,10.34-8.5,37.57,37.57,0,0,1,15.39-3q12.44,0,20.38,6.22t8.8,17.06H448a11.24,11.24,0,0,0-4.43-8q-4.06-3.32-10.71-3.32a15.21,15.21,0,0,0-9.85,3.08q-3.82,3.08-3.82,8.87a9,9,0,0,0,2.4,6.46,16.94,16.94,0,0,0,6.1,4,94.32,94.32,0,0,0,10.1,3.2,105.7,105.7,0,0,1,13.85,4.68,23.08,23.08,0,0,1,9.11,7.2q3.76,4.87,3.76,13A23.36,23.36,0,0,1,461,230.65a25.32,25.32,0,0,1-10.22,9.3,33.71,33.71,0,0,1-15.82,3.51A38.3,38.3,0,0,1,419.42,240.43Z"/><path class="cls-1" d="M493.18,239.33A31.4,31.4,0,0,1,481,227a37.15,37.15,0,0,1-4.43-18.41,36.43,36.43,0,0,1,4.56-18.35,31.47,31.47,0,0,1,12.44-12.31,38.12,38.12,0,0,1,35.22,0,31.49,31.49,0,0,1,12.44,12.31,36.45,36.45,0,0,1,4.56,18.35A35.69,35.69,0,0,1,541.08,227a32.4,32.4,0,0,1-12.75,12.38,36.74,36.74,0,0,1-17.79,4.37A34.74,34.74,0,0,1,493.18,239.33Zm27.52-10.41a19.71,19.71,0,0,0,7.7-7.76,24.94,24.94,0,0,0,3-12.56,25.47,25.47,0,0,0-2.83-12.5,19.14,19.14,0,0,0-7.51-7.7,20.55,20.55,0,0,0-10.1-2.59,20.2,20.2,0,0,0-10,2.59,18.46,18.46,0,0,0-7.33,7.7,26.41,26.41,0,0,0-2.71,12.5q0,11,5.6,16.93a18.51,18.51,0,0,0,14.1,6A20.89,20.89,0,0,0,520.7,228.92Z"/><path class="cls-1" d="M573.71,151.46v91.13h-14V151.46Z"/><path class="cls-1" d="M653.63,174.74v67.85h-14v-8a22.71,22.71,0,0,1-8.68,6.59,27.54,27.54,0,0,1-11.39,2.4,30.42,30.42,0,0,1-14.35-3.33,24,24,0,0,1-10-9.85,32,32,0,0,1-3.63-15.76v-39.9h13.92v37.8q0,9.11,4.56,14t12.44,4.86q7.88,0,12.5-4.86t4.62-14v-37.8Z"/><path class="cls-1" d="M688.48,186.19v37.56q0,3.82,1.79,5.48t6.1,1.66H705v11.7H693.9q-9.48,0-14.53-4.43t-5-14.41V186.19h-8V174.74h8V157.87h14.16v16.87H705v11.45Z"/><path class="cls-1" d="M718.65,163.16a9,9,0,0,1,6.4-15.39,8.55,8.55,0,0,1,6.28,2.59,9.22,9.22,0,0,1,0,12.81,8.55,8.55,0,0,1-6.28,2.59A8.7,8.7,0,0,1,718.65,163.16Zm13.3,11.58v67.85h-14V174.74Z"/><path class="cls-1" d="M762.48,239.33A31.4,31.4,0,0,1,750.29,227a37.15,37.15,0,0,1-4.43-18.41,36.43,36.43,0,0,1,4.56-18.35,31.47,31.47,0,0,1,12.44-12.31,38.12,38.12,0,0,1,35.22,0,31.49,31.49,0,0,1,12.44,12.31,36.45,36.45,0,0,1,4.56,18.35A35.69,35.69,0,0,1,810.39,227a32.4,32.4,0,0,1-12.75,12.38,36.74,36.74,0,0,1-17.79,4.37A34.74,34.74,0,0,1,762.48,239.33ZM790,228.92a19.71,19.71,0,0,0,7.7-7.76,24.94,24.94,0,0,0,3-12.56,25.47,25.47,0,0,0-2.83-12.5,19.14,19.14,0,0,0-7.51-7.7,20.55,20.55,0,0,0-10.1-2.59,20.2,20.2,0,0,0-10,2.59,18.46,18.46,0,0,0-7.33,7.7,26.41,26.41,0,0,0-2.71,12.5q0,11,5.6,16.93a18.51,18.51,0,0,0,14.1,6A20.89,20.89,0,0,0,790,228.92Z"/><path class="cls-1" d="M877.56,177a23.66,23.66,0,0,1,9.91,9.85A32.41,32.41,0,0,1,891,202.57v40H877.13V204.66q0-9.11-4.56-14t-12.44-4.86q-7.88,0-12.5,4.86t-4.62,14v37.93H829V174.74h14v7.76a23.25,23.25,0,0,1,8.8-6.53,28.16,28.16,0,0,1,11.39-2.34A30.43,30.43,0,0,1,877.56,177Z"/></g></g></svg>