<svg xmlns="http://www.w3.org/2000/svg" viewBox="0 0 759.3 106.12"><defs><style>.cls-1{fill:#fff;}</style></defs><title>자산 17</title><g id="레이어_2" data-name="레이어 2"><g id="Layer_1" data-name="Layer 1"><path class="cls-1" d="M16.15,6.38v98.47H0V6.38Z"/><path class="cls-1" d="M93.3,29.33a27.22,27.22,0,0,1,11.41,11.33q4.11,7.51,4.11,18.14v46h-16V61.21q0-10.48-5.24-16.08t-14.31-5.6q-9.07,0-14.38,5.6T53.56,61.21v43.64H37.41V26.78H53.56V35.7A26.76,26.76,0,0,1,63.69,28.2,32.41,32.41,0,0,1,76.79,25.5,35,35,0,0,1,93.3,29.33Z"/><path class="cls-1" d="M185.26,29.33a27.23,27.23,0,0,1,11.41,11.33q4.11,7.51,4.11,18.14v46h-16V61.21q0-10.48-5.24-16.08t-14.31-5.6q-9.07,0-14.38,5.6t-5.31,16.08v43.64H129.36V26.78h16.15V35.7a26.76,26.76,0,0,1,10.13-7.51,32.41,32.41,0,0,1,13.11-2.69A35,35,0,0,1,185.26,29.33Z"/><path class="cls-1" d="M235.2,101.09a36.12,36.12,0,0,1-14-14.17,42.74,42.74,0,0,1-5.1-21.18,41.91,41.91,0,0,1,5.24-21.11,36.2,36.2,0,0,1,14.31-14.17,43.87,43.87,0,0,1,40.52,0,36.23,36.23,0,0,1,14.31,14.17,41.94,41.94,0,0,1,5.24,21.11,41.06,41.06,0,0,1-5.38,21.11,37.28,37.28,0,0,1-14.66,14.24,42.26,42.26,0,0,1-20.47,5A40,40,0,0,1,235.2,101.09Zm31.67-12a22.68,22.68,0,0,0,8.86-8.93,28.7,28.7,0,0,0,3.4-14.45,29.3,29.3,0,0,0-3.26-14.38,22,22,0,0,0-8.64-8.86,23.63,23.63,0,0,0-11.62-3,23.23,23.23,0,0,0-11.55,3,21.23,21.23,0,0,0-8.43,8.86,30.38,30.38,0,0,0-3.12,14.38q0,12.61,6.45,19.48a21.3,21.3,0,0,0,16.22,6.87A24,24,0,0,0,266.87,89.12Z"/><path class="cls-1" d="M313.06,29.47a47.91,47.91,0,0,1,18.28-17.92,53.74,53.74,0,0,1,53.27,1.28,44,44,0,0,1,17.78,21.89H383a26,26,0,0,0-10.63-11.62,31.54,31.54,0,0,0-15.73-3.83,34.39,34.39,0,0,0-17.43,4.39,30.57,30.57,0,0,0-12,12.61A40.5,40.5,0,0,0,322.9,55.4a40.49,40.49,0,0,0,4.32,19.13,31,31,0,0,0,12,12.68,33.94,33.94,0,0,0,17.43,4.46,31.53,31.53,0,0,0,15.73-3.83A26,26,0,0,0,383,76.23h19.41A43.61,43.61,0,0,1,384.61,98a51.74,51.74,0,0,1-28,7.65,50.87,50.87,0,0,1-25.36-6.45,48,48,0,0,1-18.21-17.92,50.29,50.29,0,0,1-6.73-25.93A50.29,50.29,0,0,1,313.06,29.47Z"/><path class="cls-1" d="M491.94,26.78v78.07H475.79V95.64a26.14,26.14,0,0,1-10,7.58A31.67,31.67,0,0,1,452.69,106a35,35,0,0,1-16.51-3.83,27.6,27.6,0,0,1-11.48-11.33q-4.18-7.51-4.18-18.14V26.78h16v43.5q0,10.49,5.24,16.08T456.09,92q9.07,0,14.38-5.6t5.31-16.08V26.78Z"/><path class="cls-1" d="M529.34,0V104.85H513.19V0Z"/><path class="cls-1" d="M550.1,44.63A35.61,35.61,0,0,1,582,25.5a34.08,34.08,0,0,1,16.08,3.61,32.66,32.66,0,0,1,11,9V26.78h16.29v78.07H609.11V93.23a32.1,32.1,0,0,1-11.19,9.21A36.22,36.22,0,0,1,563.35,101,36.66,36.66,0,0,1,550.1,86.5a44.45,44.45,0,0,1-4.89-21A43.21,43.21,0,0,1,550.1,44.63Zm55.68,7.08a23.39,23.39,0,0,0-8.71-9.07,22.81,22.81,0,0,0-11.62-3.12,23.21,23.21,0,0,0-11.62,3,23,23,0,0,0-8.71,8.93,27.86,27.86,0,0,0-3.33,14,29.07,29.07,0,0,0,3.33,14.17,23.46,23.46,0,0,0,8.78,9.28,22.52,22.52,0,0,0,11.55,3.19A22.79,22.79,0,0,0,597.07,89a23.25,23.25,0,0,0,8.71-9.14,28.68,28.68,0,0,0,3.33-14.1A28.28,28.28,0,0,0,605.78,51.72Z"/><path class="cls-1" d="M672.23,28.83a27.89,27.89,0,0,1,14-3.33V42.22h-4.11q-9.5,0-14.38,4.82t-4.89,16.72v41.09H646.66V26.78h16.15V38.11A25.36,25.36,0,0,1,672.23,28.83Z"/><path class="cls-1" d="M712.9,102.79a29,29,0,0,1-11.55-9.07,22.58,22.58,0,0,1-4.53-12.82h16.72a11.39,11.39,0,0,0,4.75,8.29,17.24,17.24,0,0,0,10.84,3.33q6.8,0,10.56-2.62a7.91,7.91,0,0,0,3.75-6.73,6.91,6.91,0,0,0-4.18-6.52A78.4,78.4,0,0,0,726,72a127.23,127.23,0,0,1-14.31-4.68,25.07,25.07,0,0,1-9.56-6.94q-4-4.68-4-12.33a19.22,19.22,0,0,1,3.68-11.41,24.52,24.52,0,0,1,10.56-8.15,39.42,39.42,0,0,1,15.8-3q13.32,0,21.47,6.73t8.71,18.35H742.15a11.51,11.51,0,0,0-4.25-8.36q-3.83-3.11-10.34-3.12t-9.78,2.41a7.46,7.46,0,0,0-3.4,6.38,6.9,6.9,0,0,0,2.27,5.24,16.1,16.1,0,0,0,5.53,3.33q3.26,1.21,9.63,3a105,105,0,0,1,14,4.61A26,26,0,0,1,755.19,71q4,4.54,4.11,12a20.2,20.2,0,0,1-3.68,11.9,24.44,24.44,0,0,1-10.41,8.22,38.82,38.82,0,0,1-15.8,3A39.35,39.35,0,0,1,712.9,102.79Z"/></g></g></svg>