<svg xmlns="http://www.w3.org/2000/svg" viewBox="0 0 1238.06 240"><defs><style>.cls-1{fill:#fff;}</style></defs><title>자산 11</title><g id="레이어_2" data-name="레이어 2"><g id="Layer_1" data-name="Layer 1"><path class="cls-1" d="M5.85,25.61A41.63,41.63,0,0,1,21.73,10a44.34,44.34,0,0,1,22-5.6A44.66,44.66,0,0,1,68,11.14a38.23,38.23,0,0,1,15.45,19H66.62a22.63,22.63,0,0,0-9.24-10.1,27.4,27.4,0,0,0-13.67-3.33,29.89,29.89,0,0,0-15.15,3.82,26.58,26.58,0,0,0-10.41,11,35.2,35.2,0,0,0-3.76,16.62,35.19,35.19,0,0,0,3.76,16.62,27,27,0,0,0,10.41,11,29.5,29.5,0,0,0,15.15,3.88,27.41,27.41,0,0,0,13.67-3.32,22.62,22.62,0,0,0,9.24-10.1H83.49A37.9,37.9,0,0,1,68,85.21a45,45,0,0,1-24.32,6.65,44.21,44.21,0,0,1-22-5.6A41.76,41.76,0,0,1,5.85,70.68,43.7,43.7,0,0,1,0,48.15,43.7,43.7,0,0,1,5.85,25.61Z"/><path class="cls-1" d="M113.91,0V91.13h-14V0Z"/><path class="cls-1" d="M144.44,87.86a31.4,31.4,0,0,1-12.19-12.31,37.15,37.15,0,0,1-4.43-18.41,36.43,36.43,0,0,1,4.56-18.35,31.47,31.47,0,0,1,12.44-12.31,38.13,38.13,0,0,1,35.22,0,31.5,31.5,0,0,1,12.44,12.31A36.45,36.45,0,0,1,197,57.14a35.69,35.69,0,0,1-4.68,18.35A32.4,32.4,0,0,1,179.6,87.86a36.73,36.73,0,0,1-17.79,4.37A34.74,34.74,0,0,1,144.44,87.86ZM172,77.46a19.71,19.71,0,0,0,7.7-7.76,24.94,24.94,0,0,0,3-12.56,25.47,25.47,0,0,0-2.83-12.5,19.15,19.15,0,0,0-7.51-7.7,20.55,20.55,0,0,0-10.1-2.59,20.2,20.2,0,0,0-10,2.59,18.47,18.47,0,0,0-7.33,7.7,26.41,26.41,0,0,0-2.71,12.5q0,11,5.6,16.93a18.51,18.51,0,0,0,14.1,6A20.89,20.89,0,0,0,172,77.46Z"/><path class="cls-1" d="M272.39,23.27V91.13h-14v-8a22.71,22.71,0,0,1-8.68,6.59,27.54,27.54,0,0,1-11.39,2.4,30.42,30.42,0,0,1-14.35-3.33,24,24,0,0,1-10-9.85,32,32,0,0,1-3.63-15.76V23.27h13.91v37.8q0,9.12,4.56,14t12.44,4.86q7.88,0,12.5-4.86t4.62-14V23.27Z"/><path class="cls-1" d="M290.43,38.79a31,31,0,0,1,27.89-16.62,31.85,31.85,0,0,1,13.11,2.89,26.84,26.84,0,0,1,10.28,7.7V0h14.16V91.13H341.72V80.9A26.28,26.28,0,0,1,332.17,89a29.62,29.62,0,0,1-14,3.2A30.36,30.36,0,0,1,302,87.74a31.71,31.71,0,0,1-11.58-12.56,38.63,38.63,0,0,1-4.25-18.29A37.55,37.55,0,0,1,290.43,38.79Zm48.39,6.16a20.33,20.33,0,0,0-7.57-7.88,19.83,19.83,0,0,0-10.1-2.71A20.18,20.18,0,0,0,311.05,37a20,20,0,0,0-7.57,7.76,24.22,24.22,0,0,0-2.89,12.13,25.26,25.26,0,0,0,2.89,12.31,20.39,20.39,0,0,0,7.63,8.07,19.57,19.57,0,0,0,10,2.77,19.81,19.81,0,0,0,10.1-2.71,20.21,20.21,0,0,0,7.57-7.94,24.93,24.93,0,0,0,2.89-12.25A24.58,24.58,0,0,0,338.82,44.95Z"/><path class="cls-1" d="M496.5,5.54V91.13h-14V32.51L456.36,91.13h-9.73L420.4,32.51V91.13h-14V5.54h15.15l30,67.11L481.48,5.54Z"/><path class="cls-1" d="M514.54,38.79a31,31,0,0,1,27.77-16.62,29.62,29.62,0,0,1,14,3.14,28.39,28.39,0,0,1,9.54,7.82V23.27H580V91.13H565.83V81a27.89,27.89,0,0,1-9.73,8,31.49,31.49,0,0,1-30-1.29,31.86,31.86,0,0,1-11.51-12.56,38.63,38.63,0,0,1-4.25-18.29A37.55,37.55,0,0,1,514.54,38.79Zm48.39,6.16a20.33,20.33,0,0,0-7.57-7.88,19.83,19.83,0,0,0-10.1-2.71A20.18,20.18,0,0,0,535.17,37a20,20,0,0,0-7.57,7.76,24.21,24.21,0,0,0-2.89,12.13,25.26,25.26,0,0,0,2.89,12.31,20.39,20.39,0,0,0,7.63,8.07,19.57,19.57,0,0,0,10,2.77,19.81,19.81,0,0,0,10.1-2.71,20.2,20.2,0,0,0,7.57-7.94,24.93,24.93,0,0,0,2.89-12.25A24.58,24.58,0,0,0,562.94,44.95Z"/><path class="cls-1" d="M647,25.49A23.66,23.66,0,0,1,657,35.34a32.42,32.42,0,0,1,3.57,15.76v40H646.61V53.2q0-9.11-4.56-14t-12.44-4.86q-7.88,0-12.5,4.86t-4.62,14V91.13h-14V23.27h14V31a23.25,23.25,0,0,1,8.8-6.53,28.16,28.16,0,0,1,11.39-2.34A30.43,30.43,0,0,1,647,25.49Z"/><path class="cls-1" d="M678,38.79a31,31,0,0,1,27.77-16.62,29.62,29.62,0,0,1,14,3.14,28.39,28.39,0,0,1,9.54,7.82V23.27H743.4V91.13H729.24V81a27.89,27.89,0,0,1-9.73,8,31.49,31.49,0,0,1-30-1.29A31.86,31.86,0,0,1,678,75.18a38.63,38.63,0,0,1-4.25-18.29A37.55,37.55,0,0,1,678,38.79Zm48.4,6.16a20.33,20.33,0,0,0-7.57-7.88,19.83,19.83,0,0,0-10.1-2.71A20.18,20.18,0,0,0,698.58,37,20,20,0,0,0,691,44.76a24.21,24.21,0,0,0-2.89,12.13A25.26,25.26,0,0,0,691,69.21a20.39,20.39,0,0,0,7.63,8.07,19.57,19.57,0,0,0,10,2.77,19.81,19.81,0,0,0,10.1-2.71,20.21,20.21,0,0,0,7.57-7.94,24.94,24.94,0,0,0,2.89-12.25A24.58,24.58,0,0,0,726.35,44.95Z"/><path class="cls-1" d="M803.19,25.31a26.85,26.85,0,0,1,9.54,7.82V23.27h14.16v69a34.68,34.68,0,0,1-3.94,16.69,28.5,28.5,0,0,1-11.39,11.51q-7.45,4.18-17.79,4.19-13.79,0-22.9-6.46a23.85,23.85,0,0,1-10.34-17.55h13.91a15.1,15.1,0,0,0,6.83,8.56,23.16,23.16,0,0,0,12.5,3.26q8.5,0,13.73-5.17t5.23-15V80.9a29.16,29.16,0,0,1-23.52,11.33A30.36,30.36,0,0,1,773,87.74a31.71,31.71,0,0,1-11.58-12.56,38.63,38.63,0,0,1-4.25-18.29,37.55,37.55,0,0,1,4.25-18.1,31,31,0,0,1,27.77-16.62A30.09,30.09,0,0,1,803.19,25.31Zm6.65,19.64a20.33,20.33,0,0,0-7.57-7.88,19.83,19.83,0,0,0-10.1-2.71A20.18,20.18,0,0,0,782.07,37a20,20,0,0,0-7.57,7.76,24.21,24.21,0,0,0-2.89,12.13,25.26,25.26,0,0,0,2.89,12.31,20.39,20.39,0,0,0,7.63,8.07,19.57,19.57,0,0,0,10,2.77,19.81,19.81,0,0,0,10.1-2.71,20.21,20.21,0,0,0,7.57-7.94,24.94,24.94,0,0,0,2.89-12.25A24.58,24.58,0,0,0,809.84,44.95Z"/><path class="cls-1" d="M907.06,62.43H855.21a18.82,18.82,0,0,0,6,13.05,19,19,0,0,0,13.3,4.93q11.33,0,16-9.48H905.7a30.56,30.56,0,0,1-11.14,15.33q-8.07,6-20,6a34.64,34.64,0,0,1-17.42-4.37,31.08,31.08,0,0,1-12.07-12.31,37.56,37.56,0,0,1-4.37-18.41,38.45,38.45,0,0,1,4.25-18.41,29.88,29.88,0,0,1,11.94-12.25,35.55,35.55,0,0,1,17.67-4.31,34.57,34.57,0,0,1,17.12,4.19,29.6,29.6,0,0,1,11.7,11.76,35.43,35.43,0,0,1,4.19,17.42A44.07,44.07,0,0,1,907.06,62.43ZM892.89,51.1a16,16,0,0,0-5.54-12.44A19.82,19.82,0,0,0,873.93,34a18,18,0,0,0-12.44,4.62,19.3,19.3,0,0,0-6.16,12.5Z"/><path class="cls-1" d="M1017.82,25.49a24,24,0,0,1,10,9.85,32,32,0,0,1,3.63,15.76v40h-13.92V53.2q0-9.11-4.56-14t-12.44-4.86q-7.88,0-12.5,4.86t-4.62,14V91.13H969.49V53.2q0-9.11-4.56-14t-12.44-4.86q-7.88,0-12.5,4.86t-4.62,14V91.13h-14V23.27h14V31a23.35,23.35,0,0,1,8.74-6.53,27.73,27.73,0,0,1,11.33-2.34A30.18,30.18,0,0,1,970,25.61a23.59,23.59,0,0,1,9.85,10,22.75,22.75,0,0,1,9.61-9.79,28.42,28.42,0,0,1,14-3.63A30.43,30.43,0,0,1,1017.82,25.49Z"/><path class="cls-1" d="M1111,62.43h-51.84a18.82,18.82,0,0,0,6,13.05,19,19,0,0,0,13.3,4.93q11.33,0,16-9.48h15.15a30.56,30.56,0,0,1-11.14,15.33q-8.07,6-20,6A34.64,34.64,0,0,1,1061,87.86,31.08,31.08,0,0,1,1049,75.55a37.56,37.56,0,0,1-4.37-18.41,38.45,38.45,0,0,1,4.25-18.41,29.88,29.88,0,0,1,11.94-12.25,35.55,35.55,0,0,1,17.67-4.31,34.57,34.57,0,0,1,17.12,4.19,29.6,29.6,0,0,1,11.7,11.76,35.43,35.43,0,0,1,4.19,17.42A44.07,44.07,0,0,1,1111,62.43ZM1096.81,51.1a16,16,0,0,0-5.54-12.44A19.82,19.82,0,0,0,1077.85,34a18,18,0,0,0-12.44,4.62,19.3,19.3,0,0,0-6.16,12.5Z"/><path class="cls-1" d="M1173.84,25.49a23.66,23.66,0,0,1,9.91,9.85,32.42,32.42,0,0,1,3.57,15.76v40h-13.91V53.2q0-9.11-4.56-14t-12.44-4.86q-7.88,0-12.5,4.86t-4.62,14V91.13h-14V23.27h14V31a23.25,23.25,0,0,1,8.8-6.53,28.16,28.16,0,0,1,11.39-2.34A30.43,30.43,0,0,1,1173.84,25.49Z"/><path class="cls-1" d="M1221.56,34.73V72.28q0,3.82,1.79,5.48t6.1,1.66h8.62v11.7H1227q-9.48,0-14.53-4.43t-5-14.41V34.73h-8V23.27h8V6.4h14.16V23.27h16.5V34.73Z"/><path class="cls-1" d="M61.45,191.12a23.07,23.07,0,0,1-9.85,9.42q-6.77,3.63-17.36,3.63H18.72V238.9h-14V153.31H34.23q9.85,0,16.69,3.39a23.56,23.56,0,0,1,10.22,9.17,25.14,25.14,0,0,1,3.39,12.93A25.86,25.86,0,0,1,61.45,191.12Zm-15.27-2q3.94-3.63,3.94-10.28,0-14-15.89-14H18.72v28H34.23Q42.24,192.72,46.18,189.09Z"/><path class="cls-1" d="M92,147.77V238.9h-14V147.77Z"/><path class="cls-1" d="M110,186.56a31,31,0,0,1,27.77-16.62,29.62,29.62,0,0,1,14,3.14,28.38,28.38,0,0,1,9.54,7.82V171h14.16V238.9H161.31V228.8a27.89,27.89,0,0,1-9.73,8,31.48,31.48,0,0,1-30-1.29A31.86,31.86,0,0,1,110,222.95a38.63,38.63,0,0,1-4.25-18.29A37.55,37.55,0,0,1,110,186.56Zm48.4,6.16a20.33,20.33,0,0,0-7.57-7.88,19.83,19.83,0,0,0-10.1-2.71,19.91,19.91,0,0,0-17.67,10.41,24.21,24.21,0,0,0-2.89,12.13A25.26,25.26,0,0,0,123.08,217a20.4,20.4,0,0,0,7.63,8.07,19.58,19.58,0,0,0,10,2.77,19.81,19.81,0,0,0,10.1-2.71,20.21,20.21,0,0,0,7.57-7.94,24.94,24.94,0,0,0,2.89-12.25A24.59,24.59,0,0,0,158.42,192.72Z"/><path class="cls-1" d="M210.32,182.5v37.56q0,3.82,1.79,5.48t6.1,1.66h8.62v11.7H215.74q-9.48,0-14.53-4.43t-5-14.41V182.5h-8V171h8V154.17h14.16V171h16.5V182.5Z"/><path class="cls-1" d="M268.2,182.5H255.64v56.4H241.48V182.5h-8V171h8v-4.8q0-11.7,6.22-17.05t19.52-5.36v11.7q-6.4,0-9,2.4t-2.59,8.31V171H268.2Z"/><path class="cls-1" d="M292.7,235.63a31.39,31.39,0,0,1-12.19-12.31,37.14,37.14,0,0,1-4.43-18.41,36.43,36.43,0,0,1,4.56-18.35,31.48,31.48,0,0,1,12.44-12.31,38.13,38.13,0,0,1,35.22,0,31.5,31.5,0,0,1,12.44,12.31,36.45,36.45,0,0,1,4.56,18.35,35.68,35.68,0,0,1-4.68,18.35,32.4,32.4,0,0,1-12.75,12.38A36.73,36.73,0,0,1,310.07,240,34.74,34.74,0,0,1,292.7,235.63Zm27.52-10.41a19.72,19.72,0,0,0,7.7-7.76,24.94,24.94,0,0,0,3-12.56,25.47,25.47,0,0,0-2.83-12.5,19.13,19.13,0,0,0-7.51-7.7,20.54,20.54,0,0,0-10.1-2.59,20.19,20.19,0,0,0-10,2.59,18.45,18.45,0,0,0-7.33,7.7,26.41,26.41,0,0,0-2.71,12.5q0,11,5.6,16.93a18.51,18.51,0,0,0,14.1,6A20.9,20.9,0,0,0,320.23,225.23Z"/><path class="cls-1" d="M381.43,172.83a24.23,24.23,0,0,1,12.13-2.89v14.53H390q-8.25,0-12.5,4.19t-4.25,14.53V238.9h-14V171h14v9.85A22,22,0,0,1,381.43,172.83Z"/><path class="cls-1" d="M503,173.26a24,24,0,0,1,10,9.85,32,32,0,0,1,3.63,15.76v40H502.66V201q0-9.11-4.56-14t-12.44-4.86q-7.88,0-12.5,4.86t-4.62,14V238.9H454.63V201q0-9.11-4.56-14t-12.44-4.86q-7.88,0-12.5,4.86t-4.62,14V238.9h-14V171h14v7.76a23.34,23.34,0,0,1,8.74-6.53,27.73,27.73,0,0,1,11.33-2.34,30.17,30.17,0,0,1,14.53,3.45,23.58,23.58,0,0,1,9.85,10,22.74,22.74,0,0,1,9.6-9.79,28.41,28.41,0,0,1,14-3.63A30.43,30.43,0,0,1,503,173.26Z"/></g></g></svg>