<svg xmlns="http://www.w3.org/2000/svg" viewBox="0 0 554.87 235.57"><defs><style>.cls-1{fill:#fff;}</style></defs><title>자산 1</title><g id="레이어_2" data-name="레이어 2"><g id="Layer_1" data-name="Layer 1"><path class="cls-1" d="M16.13,1.11V86.69h-14V1.11Z"/><path class="cls-1" d="M34.17,34.36A31,31,0,0,1,61.94,17.73a29.62,29.62,0,0,1,14,3.14,28.38,28.38,0,0,1,9.54,7.82V18.84H99.62V86.69H85.46V76.59a27.88,27.88,0,0,1-9.73,8,30,30,0,0,1-14,3.2,29.82,29.82,0,0,1-16-4.5A31.85,31.85,0,0,1,34.17,70.75a38.63,38.63,0,0,1-4.25-18.29A37.55,37.55,0,0,1,34.17,34.36Zm48.4,6.16A20.34,20.34,0,0,0,75,32.63a19.83,19.83,0,0,0-10.1-2.71A19.91,19.91,0,0,0,47.22,40.33a24.21,24.21,0,0,0-2.89,12.13,25.26,25.26,0,0,0,2.89,12.31,20.39,20.39,0,0,0,7.63,8.07,19.58,19.58,0,0,0,10,2.77A19.81,19.81,0,0,0,75,72.9,20.21,20.21,0,0,0,82.57,65a24.94,24.94,0,0,0,2.89-12.25A24.59,24.59,0,0,0,82.57,40.51Z"/><path class="cls-1" d="M117.66,34.36a31,31,0,0,1,27.77-16.62,29.62,29.62,0,0,1,14,3.14,28.38,28.38,0,0,1,9.54,7.82V18.84h14.16V86.69H168.95V76.59a27.88,27.88,0,0,1-9.73,8,31.48,31.48,0,0,1-30-1.29,31.85,31.85,0,0,1-11.51-12.56,38.63,38.63,0,0,1-4.25-18.29A37.55,37.55,0,0,1,117.66,34.36Zm48.39,6.16a20.34,20.34,0,0,0-7.57-7.88,19.83,19.83,0,0,0-10.1-2.71,19.91,19.91,0,0,0-17.67,10.41,24.22,24.22,0,0,0-2.89,12.13,25.26,25.26,0,0,0,2.89,12.31,20.4,20.4,0,0,0,7.63,8.07,19.58,19.58,0,0,0,10,2.77,19.81,19.81,0,0,0,10.1-2.71A20.21,20.21,0,0,0,166.06,65a24.93,24.93,0,0,0,2.89-12.25A24.59,24.59,0,0,0,166.06,40.51Z"/><path class="cls-1" d="M214.27,84.54A25.44,25.44,0,0,1,203.43,76,21.72,21.72,0,0,1,199.49,63h15a13.56,13.56,0,0,0,4.37,9.11q3.88,3.57,10.9,3.57,7.26,0,11.33-3.51a11.41,11.41,0,0,0,4.06-9.05,9.89,9.89,0,0,0-2.52-7A16.92,16.92,0,0,0,236.37,52,95.26,95.26,0,0,0,226,48.76a97.15,97.15,0,0,1-13.61-4.5,22.47,22.47,0,0,1-8.93-7.08q-3.69-4.8-3.69-12.81a22.76,22.76,0,0,1,3.69-12.93A23.59,23.59,0,0,1,213.77,3a37.57,37.57,0,0,1,15.39-3q12.44,0,20.38,6.22t8.8,17.06H242.83a11.24,11.24,0,0,0-4.43-8q-4.06-3.32-10.71-3.32A15.21,15.21,0,0,0,217.84,15Q214,18.1,214,23.89a9,9,0,0,0,2.4,6.46,16.94,16.94,0,0,0,6.1,4,94.32,94.32,0,0,0,10.1,3.2,105.72,105.72,0,0,1,13.85,4.68,23.08,23.08,0,0,1,9.11,7.2q3.76,4.87,3.76,13a23.36,23.36,0,0,1-3.51,12.31A25.32,25.32,0,0,1,245.61,84a33.71,33.71,0,0,1-15.82,3.51A38.3,38.3,0,0,1,214.27,84.54Z"/><path class="cls-1" d="M14.78,232.31a25.44,25.44,0,0,1-10.84-8.56A21.72,21.72,0,0,1,0,210.82H15a13.56,13.56,0,0,0,4.37,9.11q3.88,3.57,10.9,3.57,7.26,0,11.33-3.51a11.41,11.41,0,0,0,4.06-9.05,9.89,9.89,0,0,0-2.52-7,16.92,16.92,0,0,0-6.28-4.19,95.25,95.25,0,0,0-10.41-3.2A97.16,97.16,0,0,1,12.87,192,22.47,22.47,0,0,1,3.94,185Q.25,180.16.25,172.15a22.76,22.76,0,0,1,3.69-12.93,23.59,23.59,0,0,1,10.34-8.5,37.57,37.57,0,0,1,15.39-3q12.44,0,20.38,6.22T58.86,171H43.35a11.24,11.24,0,0,0-4.43-8q-4.06-3.32-10.71-3.32a15.21,15.21,0,0,0-9.85,3.08q-3.82,3.08-3.82,8.87a9,9,0,0,0,2.4,6.46,16.94,16.94,0,0,0,6.1,4,94.32,94.32,0,0,0,10.1,3.2A105.72,105.72,0,0,1,47,190a23.08,23.08,0,0,1,9.11,7.2q3.76,4.87,3.76,13a23.36,23.36,0,0,1-3.51,12.31,25.32,25.32,0,0,1-10.22,9.3,33.71,33.71,0,0,1-15.82,3.51A38.3,38.3,0,0,1,14.78,232.31Z"/><path class="cls-1" d="M88.54,231.2a31.4,31.4,0,0,1-12.19-12.31,37.15,37.15,0,0,1-4.43-18.41,36.43,36.43,0,0,1,4.56-18.35,31.47,31.47,0,0,1,12.44-12.31,38.12,38.12,0,0,1,35.22,0,31.49,31.49,0,0,1,12.44,12.31,36.45,36.45,0,0,1,4.56,18.35,35.69,35.69,0,0,1-4.68,18.35A32.4,32.4,0,0,1,123.7,231.2a36.73,36.73,0,0,1-17.79,4.37A34.74,34.74,0,0,1,88.54,231.2Zm27.52-10.41a19.71,19.71,0,0,0,7.7-7.76,24.94,24.94,0,0,0,3-12.56,25.47,25.47,0,0,0-2.83-12.5,19.14,19.14,0,0,0-7.51-7.7,20.55,20.55,0,0,0-10.1-2.59,20.2,20.2,0,0,0-10,2.59,18.46,18.46,0,0,0-7.33,7.7,26.41,26.41,0,0,0-2.71,12.5q0,11,5.6,16.93a18.51,18.51,0,0,0,14.1,6A20.89,20.89,0,0,0,116.06,220.79Z"/><path class="cls-1" d="M169.07,143.34v91.13H155V143.34Z"/><path class="cls-1" d="M249,166.61v67.85H235v-8a22.71,22.71,0,0,1-8.68,6.59,27.54,27.54,0,0,1-11.39,2.4,30.42,30.42,0,0,1-14.35-3.33,24,24,0,0,1-10-9.85,32,32,0,0,1-3.63-15.76v-39.9h13.91v37.8q0,9.11,4.56,14t12.44,4.86q7.88,0,12.5-4.86t4.62-14v-37.8Z"/><path class="cls-1" d="M283.84,178.06v37.56q0,3.82,1.79,5.48t6.1,1.66h8.62v11.7H289.26q-9.48,0-14.53-4.43t-5-14.41V178.06h-8V166.61h8V149.74h14.16v16.87h16.5v11.45Z"/><path class="cls-1" d="M314,155a9,9,0,0,1,6.4-15.39,8.55,8.55,0,0,1,6.28,2.59,9.22,9.22,0,0,1,0,12.81,8.55,8.55,0,0,1-6.28,2.59A8.7,8.7,0,0,1,314,155Zm13.3,11.58v67.85h-14V166.61Z"/><path class="cls-1" d="M357.84,231.2a31.4,31.4,0,0,1-12.19-12.31,37.15,37.15,0,0,1-4.43-18.41,36.44,36.44,0,0,1,4.56-18.35,31.47,31.47,0,0,1,12.44-12.31,38.12,38.12,0,0,1,35.22,0,31.49,31.49,0,0,1,12.44,12.31,36.45,36.45,0,0,1,4.56,18.35,35.69,35.69,0,0,1-4.68,18.35A32.4,32.4,0,0,1,393,231.2a36.73,36.73,0,0,1-17.79,4.37A34.74,34.74,0,0,1,357.84,231.2Zm27.52-10.41a19.71,19.71,0,0,0,7.7-7.76,24.94,24.94,0,0,0,3-12.56,25.47,25.47,0,0,0-2.83-12.5,19.14,19.14,0,0,0-7.51-7.7,20.55,20.55,0,0,0-10.1-2.59,20.2,20.2,0,0,0-10,2.59,18.46,18.46,0,0,0-7.33,7.7,26.41,26.41,0,0,0-2.71,12.5q0,11,5.6,16.93a18.51,18.51,0,0,0,14.1,6A20.89,20.89,0,0,0,385.37,220.79Z"/><path class="cls-1" d="M472.92,168.83a23.66,23.66,0,0,1,9.91,9.85,32.42,32.42,0,0,1,3.57,15.76v40H472.49V196.54q0-9.11-4.56-14t-12.44-4.86q-7.88,0-12.5,4.86t-4.62,14v37.93h-14V166.61h14v7.76a23.25,23.25,0,0,1,8.8-6.53,28.16,28.16,0,0,1,11.39-2.34A30.43,30.43,0,0,1,472.92,168.83Z"/><path class="cls-1" d="M514.54,232.68a25.18,25.18,0,0,1-10-7.88,19.63,19.63,0,0,1-3.94-11.14h14.53a9.9,9.9,0,0,0,4.13,7.2,15,15,0,0,0,9.42,2.89q5.91,0,9.17-2.28a6.88,6.88,0,0,0,3.26-5.85,6,6,0,0,0-3.63-5.66,68.12,68.12,0,0,0-11.51-4.06,110.63,110.63,0,0,1-12.44-4.06,21.8,21.8,0,0,1-8.31-6q-3.51-4.06-3.51-10.71a16.7,16.7,0,0,1,3.2-9.91,21.32,21.32,0,0,1,9.17-7.08,34.28,34.28,0,0,1,13.73-2.59q11.57,0,18.66,5.85T554,187.3H540a10,10,0,0,0-3.69-7.27q-3.32-2.71-9-2.71t-8.5,2.09a6.49,6.49,0,0,0-3,5.54,6,6,0,0,0,2,4.56,14,14,0,0,0,4.8,2.89q2.83,1,8.37,2.65a91.12,91.12,0,0,1,12.13,4,22.6,22.6,0,0,1,8.19,6q3.45,3.94,3.57,10.47a17.55,17.55,0,0,1-3.2,10.34,21.25,21.25,0,0,1-9.05,7.14,33.74,33.74,0,0,1-13.73,2.59A34.2,34.2,0,0,1,514.54,232.68Z"/></g></g></svg>