<svg xmlns="http://www.w3.org/2000/svg" viewBox="0 0 682.57 243.7"><defs><style>.cls-1{fill:#fff;}</style></defs><title>자산 14</title><g id="레이어_2" data-name="레이어 2"><g id="Layer_1" data-name="Layer 1"><path class="cls-1" d="M68.34,9.24V94.82h-14V57.38H14V94.82H0V9.24H14v36.7H54.31V9.24Z"/><path class="cls-1" d="M147.89,27l-41.62,99.75H91.74l13.79-33L78.81,27H94.45l19.09,51.72L133.36,27Z"/><path class="cls-1" d="M182.31,29a30.29,30.29,0,0,1,13.85-3.14,31.27,31.27,0,0,1,16.26,4.31,30.33,30.33,0,0,1,11.45,12.25,38.37,38.37,0,0,1,4.19,18.16,39.1,39.1,0,0,1-4.19,18.29,31.29,31.29,0,0,1-11.51,12.56,32.24,32.24,0,0,1-30.17,1.42A26.86,26.86,0,0,1,172.52,85v9.85h-14V3.69h14V37.07A26.64,26.64,0,0,1,182.31,29Zm28.57,19.46a19.88,19.88,0,0,0-7.63-7.76,20.53,20.53,0,0,0-10.16-2.65,19.92,19.92,0,0,0-10,2.71,20.16,20.16,0,0,0-7.63,7.88,24.55,24.55,0,0,0-2.89,12.19,24.9,24.9,0,0,0,2.89,12.25,20,20,0,0,0,17.67,10.65A19.81,19.81,0,0,0,203.24,81a20.44,20.44,0,0,0,7.63-8.07,25.29,25.29,0,0,0,2.89-12.31A24.24,24.24,0,0,0,210.88,48.46Z"/><path class="cls-1" d="M264.2,28.75a24.23,24.23,0,0,1,12.13-2.89V40.39h-3.57q-8.25,0-12.5,4.19T256,59.11V94.82H242V27h14v9.85A22,22,0,0,1,264.2,28.75Z"/><path class="cls-1" d="M290,15.39A8.7,8.7,0,0,1,287.41,9a8.83,8.83,0,0,1,9-9,8.55,8.55,0,0,1,6.28,2.59A8.7,8.7,0,0,1,305.26,9a8.7,8.7,0,0,1-2.59,6.4A8.55,8.55,0,0,1,296.4,18,8.69,8.69,0,0,1,290,15.39ZM303.29,27V94.82h-14V27Z"/><path class="cls-1" d="M321.33,42.48a31,31,0,0,1,27.89-16.62,31.84,31.84,0,0,1,13.11,2.89,26.84,26.84,0,0,1,10.28,7.7V3.69h14.16V94.82H372.62V84.6a26.29,26.29,0,0,1-9.54,8.13,29.62,29.62,0,0,1-14,3.2,30.36,30.36,0,0,1-16.19-4.49,31.71,31.71,0,0,1-11.58-12.56,38.64,38.64,0,0,1-4.25-18.29A37.56,37.56,0,0,1,321.33,42.48Zm48.39,6.16a20.33,20.33,0,0,0-7.57-7.88,19.83,19.83,0,0,0-10.1-2.71A20.17,20.17,0,0,0,342,40.7a20,20,0,0,0-7.57,7.76,24.22,24.22,0,0,0-2.89,12.13,25.27,25.27,0,0,0,2.89,12.31A20.4,20.4,0,0,0,342,81a19.58,19.58,0,0,0,10,2.77A19.81,19.81,0,0,0,362.16,81a20.2,20.2,0,0,0,7.57-7.94,24.93,24.93,0,0,0,2.89-12.25A24.58,24.58,0,0,0,369.73,48.64Z"/><path class="cls-1" d="M503.4,94.82,492.81,84.23a41.45,41.45,0,0,1-13.42,9.17,42,42,0,0,1-16.25,3A38.5,38.5,0,0,1,447,93.22,24.59,24.59,0,0,1,436.16,84a25.16,25.16,0,0,1-3.82-13.85,26.26,26.26,0,0,1,5-15.82q5-7,15-11a30.44,30.44,0,0,1-5-8.07A22.49,22.49,0,0,1,445.89,27a18.06,18.06,0,0,1,2.89-10.1,19.81,19.81,0,0,1,8.31-7,28.84,28.84,0,0,1,12.56-2.59A25.64,25.64,0,0,1,482,10a18.13,18.13,0,0,1,7.63,7.57,19.15,19.15,0,0,1,2,10.71h-14q.12-4.55-2.22-7.08a8.31,8.31,0,0,0-6.4-2.52,9.16,9.16,0,0,0-6.59,2.4A7.77,7.77,0,0,0,459.93,27a12.92,12.92,0,0,0,1.91,6.59A52.79,52.79,0,0,0,468.55,42l22.66,22.54,8.74-14.41H515.1L504,69.08l-3.08,5,20.81,20.69ZM483.57,75,460.91,52.21Q446.38,58,446.38,69.7a13.65,13.65,0,0,0,4.68,10.53q4.68,4.25,12.07,4.25Q474.7,84.48,483.57,75Z"/><path class="cls-1" d="M90.14,157v85.58h-14V184L50,242.59H40.27L14,184v58.62H0V157H15.15l30,67.11L75.12,157Z"/><path class="cls-1" d="M170.06,174.74v67.85H156v-8a22.73,22.73,0,0,1-8.68,6.59,27.54,27.54,0,0,1-11.39,2.4,30.42,30.42,0,0,1-14.35-3.33,24,24,0,0,1-10-9.85A32,32,0,0,1,108,214.64v-39.9h13.91v37.8q0,9.11,4.56,14t12.44,4.86q7.88,0,12.5-4.86t4.62-14v-37.8Z"/><path class="cls-1" d="M202.57,151.46v91.13h-14V151.46Z"/><path class="cls-1" d="M237.42,186.19v37.56q0,3.82,1.79,5.48t6.1,1.66h8.62v11.7H242.83q-9.48,0-14.53-4.43t-5-14.41V186.19h-8V174.74h8V157.87h14.16v16.87h16.5v11.45Z"/><path class="cls-1" d="M267.58,163.16a9,9,0,0,1,6.4-15.39,8.55,8.55,0,0,1,6.28,2.59,9.22,9.22,0,0,1,0,12.81,8.55,8.55,0,0,1-6.28,2.59A8.7,8.7,0,0,1,267.58,163.16Zm13.3,11.58v67.85h-14V174.74Z"/><path class="cls-1" d="M332.54,177.08a41.65,41.65,0,0,1,15.88-15.58,46.7,46.7,0,0,1,46.3,1.11,38.23,38.23,0,0,1,15.45,19H393.31a22.63,22.63,0,0,0-9.24-10.1,27.42,27.42,0,0,0-13.67-3.32A29.88,29.88,0,0,0,355.26,172a26.57,26.57,0,0,0-10.41,11,38.67,38.67,0,0,0,0,33.25,27,27,0,0,0,10.41,11,29.5,29.5,0,0,0,15.15,3.88,27.41,27.41,0,0,0,13.67-3.33,22.62,22.62,0,0,0,9.24-10.1h16.87a37.89,37.89,0,0,1-15.45,19,45,45,0,0,1-24.32,6.65,44.21,44.21,0,0,1-22-5.6,41.76,41.76,0,0,1-15.82-15.58,46.33,46.33,0,0,1,0-45.07Z"/><path class="cls-1" d="M440.6,151.46v91.13h-14V151.46Z"/><path class="cls-1" d="M471.14,239.33A31.39,31.39,0,0,1,458.94,227a37.15,37.15,0,0,1-4.43-18.41,36.43,36.43,0,0,1,4.56-18.35,31.48,31.48,0,0,1,12.44-12.31,38.13,38.13,0,0,1,35.22,0,31.51,31.51,0,0,1,12.44,12.31,36.46,36.46,0,0,1,4.56,18.35A35.69,35.69,0,0,1,519,227a32.39,32.39,0,0,1-12.75,12.38,36.73,36.73,0,0,1-17.79,4.37A34.74,34.74,0,0,1,471.14,239.33Zm27.52-10.41a19.71,19.71,0,0,0,7.7-7.76,25,25,0,0,0,3-12.56,25.48,25.48,0,0,0-2.83-12.5,19.14,19.14,0,0,0-7.51-7.7,20.54,20.54,0,0,0-10.1-2.59,20.19,20.19,0,0,0-10,2.59,18.45,18.45,0,0,0-7.33,7.7,26.41,26.41,0,0,0-2.71,12.5q0,11,5.6,16.93a18.51,18.51,0,0,0,14.1,6A20.89,20.89,0,0,0,498.66,228.92Z"/><path class="cls-1" d="M599.08,174.74v67.85H585v-8a22.72,22.72,0,0,1-8.68,6.59,27.54,27.54,0,0,1-11.39,2.4,30.41,30.41,0,0,1-14.35-3.33,24,24,0,0,1-10-9.85A32,32,0,0,1,537,214.64v-39.9h13.92v37.8q0,9.11,4.56,14t12.44,4.86q7.88,0,12.5-4.86t4.62-14v-37.8Z"/><path class="cls-1" d="M617.12,190.25A31,31,0,0,1,645,173.63a31.85,31.85,0,0,1,13.12,2.89,26.85,26.85,0,0,1,10.28,7.7V151.46h14.16v91.13H668.41V232.37a26.27,26.27,0,0,1-9.54,8.13,29.62,29.62,0,0,1-14,3.2,30.35,30.35,0,0,1-16.19-4.5,31.71,31.71,0,0,1-11.58-12.56,38.62,38.62,0,0,1-4.25-18.29A37.55,37.55,0,0,1,617.12,190.25Zm48.4,6.16a20.33,20.33,0,0,0-7.57-7.88,19.83,19.83,0,0,0-10.1-2.71,20.17,20.17,0,0,0-10.1,2.65,20,20,0,0,0-7.57,7.76,24.21,24.21,0,0,0-2.89,12.13,25.25,25.25,0,0,0,2.89,12.31,20.39,20.39,0,0,0,7.63,8.07,19.58,19.58,0,0,0,10,2.77,19.81,19.81,0,0,0,10.1-2.71,20.21,20.21,0,0,0,7.57-7.94,24.94,24.94,0,0,0,2.89-12.25A24.59,24.59,0,0,0,665.51,196.41Z"/></g></g></svg>