<svg xmlns="http://www.w3.org/2000/svg" viewBox="0 0 232 327.33"><defs><style>.cls-1{fill:#6268ff;}.cls-2{fill:#fff;}</style></defs><title>자산 2</title><g id="레이어_2" data-name="레이어 2"><g id="Layer_1" data-name="Layer 1"><polygon class="cls-1" points="181.67 197.33 117 197.33 115 197.33 50.33 197.33 50.33 327.33 116 288.59 181.67 327.33 181.67 197.33"/><circle class="cls-2" cx="116" cy="116" r="116"/><path class="cls-1" d="M127.32,55.23l8.08,24.85a11.9,11.9,0,0,0,11.32,8.23h26.13c11.53,0,16.33,14.76,7,21.53L158.71,125.2a11.9,11.9,0,0,0-4.32,13.31l8.08,24.85c3.56,11-9,20.09-18.32,13.31L123,161.31a11.9,11.9,0,0,0-14,0L87.86,176.67c-9.33,6.78-21.88-2.34-18.32-13.31l8.08-24.85a11.9,11.9,0,0,0-4.32-13.31L52.15,109.84c-9.33-6.78-4.53-21.53,7-21.53H85.28A11.9,11.9,0,0,0,96.6,80.08l8.08-24.85C108.24,44.26,123.76,44.26,127.32,55.23Z"/></g></g></svg>