<svg xmlns="http://www.w3.org/2000/svg" viewBox="0 0 333.36 297.47"><defs><style>.cls-1{fill:#fff;}.cls-2{fill:#a971ff;}</style></defs><title>자산 12</title><g id="레이어_2" data-name="레이어 2"><g id="Layer_1" data-name="Layer 1"><path class="cls-1" d="M333.36,128.72c0-33-25.34-59.83-56.59-59.83a53.78,53.78,0,0,0-13.31,1.68C253.52,30,218.64,0,177.14,0c-34.61,0-64.6,20.87-79.37,51.34a64.93,64.93,0,0,0-29.53-7.09C30.55,44.25,0,76.55,0,116.4c0,39.6,30.17,71.73,67.53,72.13v0H279.15v-.06C309.3,187.17,333.36,160.92,333.36,128.72Z"/><path class="cls-2" d="M220.15,211.38V147.6a4.26,4.26,0,0,0-4.26-4.26H121.17a4.26,4.26,0,0,0-4.26,4.26v63.78a4.26,4.26,0,0,1-4.26,4.26H84.42a4.26,4.26,0,0,0-2.87,7.42l78.9,71.65a10.63,10.63,0,0,0,14.29,0l79-71.65a4.26,4.26,0,0,0-2.86-7.42H224.41A4.26,4.26,0,0,1,220.15,211.38Z"/></g></g></svg>