<svg xmlns="http://www.w3.org/2000/svg" viewBox="0 0 823.56 244.44"><defs><style>.cls-1{fill:#fff;}</style></defs><title>자산 4</title><g id="레이어_2" data-name="레이어 2"><g id="Layer_1" data-name="Layer 1"><path class="cls-1" d="M22,90.32A41.48,41.48,0,0,1,6.1,74.69,44,44,0,0,1,.25,52.09,43.7,43.7,0,0,1,6.1,29.55,41.64,41.64,0,0,1,22,14a44.34,44.34,0,0,1,22-5.6A44.59,44.59,0,0,1,66.07,14,41.23,41.23,0,0,1,81.89,29.55a44.07,44.07,0,0,1,5.79,22.54,44.41,44.41,0,0,1-5.79,22.6A41.08,41.08,0,0,1,66.07,90.32,44.57,44.57,0,0,1,44,95.93,44.31,44.31,0,0,1,22,90.32ZM59.11,79.86A26.89,26.89,0,0,0,69.51,68.77a35.58,35.58,0,0,0,3.76-16.69,35.22,35.22,0,0,0-3.76-16.62,26.58,26.58,0,0,0-10.41-11A29.88,29.88,0,0,0,44,20.69a29.89,29.89,0,0,0-15.15,3.82,26.58,26.58,0,0,0-10.41,11,35.2,35.2,0,0,0-3.76,16.62,35.56,35.56,0,0,0,3.76,16.69A26.89,26.89,0,0,0,28.82,79.86,29.5,29.5,0,0,0,44,83.74,29.5,29.5,0,0,0,59.11,79.86Z"/><path class="cls-1" d="M125.24,29.31a29.72,29.72,0,0,1,13.91-3.2,30.77,30.77,0,0,1,27.71,16.62A38,38,0,0,1,171,60.83a39.11,39.11,0,0,1-4.19,18.29,31.3,31.3,0,0,1-11.51,12.56,30.36,30.36,0,0,1-16.19,4.49A29.44,29.44,0,0,1,125.36,93a30.87,30.87,0,0,1-9.85-7.82v42.11h-14V27.21h14v10A28.52,28.52,0,0,1,125.24,29.31ZM153.87,48.7a19.87,19.87,0,0,0-7.63-7.76,20.52,20.52,0,0,0-10.16-2.65A19.93,19.93,0,0,0,126,41a20.15,20.15,0,0,0-7.63,7.88,24.55,24.55,0,0,0-2.89,12.19,24.91,24.91,0,0,0,2.89,12.25A20,20,0,0,0,136.07,84a19.81,19.81,0,0,0,10.16-2.77,20.43,20.43,0,0,0,7.63-8.07,25.29,25.29,0,0,0,2.89-12.31A24.24,24.24,0,0,0,153.87,48.7Z"/><path class="cls-1" d="M246.65,66.37H194.81a18.82,18.82,0,0,0,6,13.05,19,19,0,0,0,13.3,4.93q11.33,0,16-9.48H245.3A30.57,30.57,0,0,1,234.15,90.2q-8.07,6-20,6a34.64,34.64,0,0,1-17.42-4.37,31.08,31.08,0,0,1-12.07-12.31,37.56,37.56,0,0,1-4.37-18.41,38.45,38.45,0,0,1,4.25-18.41,29.88,29.88,0,0,1,11.95-12.25,35.55,35.55,0,0,1,17.67-4.31,34.57,34.57,0,0,1,17.12,4.19A29.6,29.6,0,0,1,243,42.05a35.43,35.43,0,0,1,4.19,17.42A44.14,44.14,0,0,1,246.65,66.37ZM232.49,55A16,16,0,0,0,227,42.61a19.82,19.82,0,0,0-13.42-4.68,18,18,0,0,0-12.44,4.62A19.3,19.3,0,0,0,194.93,55Z"/><path class="cls-1" d="M309.52,29.43a23.66,23.66,0,0,1,9.91,9.85A32.42,32.42,0,0,1,323,55v40H309.08V57.14q0-9.11-4.56-14T292.09,38.3q-7.88,0-12.5,4.86t-4.62,14V95.07h-14V27.21h14V35a23.24,23.24,0,0,1,8.8-6.53,28.16,28.16,0,0,1,11.39-2.34A30.43,30.43,0,0,1,309.52,29.43Z"/><path class="cls-1" d="M351.14,93.28a25.18,25.18,0,0,1-10-7.88,19.63,19.63,0,0,1-3.94-11.14h14.53a9.9,9.9,0,0,0,4.13,7.2,15,15,0,0,0,9.42,2.89q5.91,0,9.17-2.28a6.87,6.87,0,0,0,3.26-5.85A6,6,0,0,0,374,70.56a68.16,68.16,0,0,0-11.51-4.06,110.65,110.65,0,0,1-12.44-4.06,21.79,21.79,0,0,1-8.31-6q-3.51-4.06-3.51-10.71a16.7,16.7,0,0,1,3.2-9.91,21.31,21.31,0,0,1,9.17-7.08,34.28,34.28,0,0,1,13.73-2.59q11.57,0,18.66,5.85T390.6,47.9h-14a10,10,0,0,0-3.69-7.27q-3.33-2.71-9-2.71T355.38,40a6.48,6.48,0,0,0-3,5.54,6,6,0,0,0,2,4.56A14,14,0,0,0,359.2,53q2.83,1,8.37,2.65a91.24,91.24,0,0,1,12.13,4,22.6,22.6,0,0,1,8.19,6q3.45,3.94,3.57,10.47a17.55,17.55,0,0,1-3.2,10.34,21.24,21.24,0,0,1-9.05,7.14,33.74,33.74,0,0,1-13.73,2.59A34.19,34.19,0,0,1,351.14,93.28Z"/><path class="cls-1" d="M455.56,29.43a23.67,23.67,0,0,1,9.61,9.85A32.89,32.89,0,0,1,468.67,55v40H454.76V57.14q0-9.11-4.56-14T437.77,38.3q-7.88,0-12.5,4.86t-4.62,14V95.07h-14V3.94h14V35.1a23.55,23.55,0,0,1,9.05-6.65,30.28,30.28,0,0,1,12-2.34A28.45,28.45,0,0,1,455.56,29.43Z"/><path class="cls-1" d="M487.27,15.64a8.69,8.69,0,0,1-2.59-6.4,8.83,8.83,0,0,1,9-9A8.55,8.55,0,0,1,500,2.83a8.7,8.7,0,0,1,2.59,6.4,8.7,8.7,0,0,1-2.59,6.4,8.55,8.55,0,0,1-6.28,2.59A8.69,8.69,0,0,1,487.27,15.64Zm13.3,11.58V95.07h-14V27.21Z"/><path class="cls-1" d="M547.48,38.67H534.92v56.4H520.76V38.67h-8V27.21h8v-4.8q0-11.7,6.22-17.06T546.5,0V11.7q-6.4,0-9,2.4t-2.59,8.31v4.8h12.56Z"/><path class="cls-1" d="M576.3,38.67V76.23q0,3.82,1.79,5.48t6.1,1.66h8.62v11.7H581.72q-9.48,0-14.53-4.43t-5-14.41V38.67h-8V27.21h8V10.34H576.3V27.21h16.5V38.67Z"/><path class="cls-1" d="M71.05,242.84,60.46,232.25A41.43,41.43,0,0,1,47,241.42a42,42,0,0,1-16.25,3,38.49,38.49,0,0,1-16.13-3.2,24.59,24.59,0,0,1-10.84-9.17A25.16,25.16,0,0,1,0,218.21a26.26,26.26,0,0,1,5-15.82q5-7,15-11a30.5,30.5,0,0,1-5-8.07A22.51,22.51,0,0,1,13.55,175a18.06,18.06,0,0,1,2.89-10.1,19.81,19.81,0,0,1,8.31-7,28.84,28.84,0,0,1,12.56-2.59,25.65,25.65,0,0,1,12.38,2.77,18.13,18.13,0,0,1,7.63,7.57,19.16,19.16,0,0,1,2,10.71h-14q.12-4.55-2.22-7.08a8.31,8.31,0,0,0-6.4-2.52,9.16,9.16,0,0,0-6.59,2.4A7.77,7.77,0,0,0,27.58,175a12.91,12.91,0,0,0,1.91,6.59A52.73,52.73,0,0,0,36.2,190l22.66,22.54,8.74-14.41H82.75l-11.08,19-3.08,5L89.4,242.84ZM51.23,223,28.57,200.23Q14,206,14,217.72a13.64,13.64,0,0,0,4.68,10.53q4.68,4.25,12.07,4.25Q42.36,232.49,51.23,223Z"/><path class="cls-1" d="M177.82,242.84l-33.13-38.3v38.3h-14V157.25h14v39l33.25-39h17.61l-37.19,42.85,37.8,42.73Z"/><path class="cls-1" d="M270,175v67.85H256v-8a22.72,22.72,0,0,1-8.68,6.59,27.54,27.54,0,0,1-11.39,2.4,30.42,30.42,0,0,1-14.35-3.33,24,24,0,0,1-10-9.85A32,32,0,0,1,208,214.88V175H221.9v37.8q0,9.12,4.56,14t12.44,4.86q7.88,0,12.5-4.86t4.62-14V175Z"/><path class="cls-1" d="M312.35,177a30.28,30.28,0,0,1,13.85-3.14,31.27,31.27,0,0,1,16.25,4.31,30.33,30.33,0,0,1,11.45,12.25,38.38,38.38,0,0,1,4.19,18.16,39.11,39.11,0,0,1-4.19,18.29,31.29,31.29,0,0,1-11.51,12.56,32.24,32.24,0,0,1-30.17,1.42,26.85,26.85,0,0,1-9.67-7.88v9.85h-14V151.71h14v33.37A26.63,26.63,0,0,1,312.35,177Zm28.57,19.46a19.87,19.87,0,0,0-7.63-7.76,20.52,20.52,0,0,0-10.16-2.65,19.93,19.93,0,0,0-10,2.71,20.16,20.16,0,0,0-7.63,7.88,24.56,24.56,0,0,0-2.89,12.19,24.92,24.92,0,0,0,2.89,12.25,20,20,0,0,0,17.67,10.65A19.8,19.8,0,0,0,333.28,229a20.43,20.43,0,0,0,7.63-8.07,25.29,25.29,0,0,0,2.89-12.31A24.24,24.24,0,0,0,340.92,196.47Z"/><path class="cls-1" d="M433.7,214.14H381.86a18.82,18.82,0,0,0,6,13.05,19,19,0,0,0,13.3,4.93q11.33,0,16-9.48h15.15A30.57,30.57,0,0,1,421.2,238q-8.07,6-20,6a34.64,34.64,0,0,1-17.42-4.37,31.08,31.08,0,0,1-12.07-12.31,37.56,37.56,0,0,1-4.37-18.41,38.44,38.44,0,0,1,4.25-18.41,29.88,29.88,0,0,1,11.94-12.25,35.55,35.55,0,0,1,17.67-4.31,34.57,34.57,0,0,1,17.12,4.19A29.61,29.61,0,0,1,430,189.82a35.43,35.43,0,0,1,4.19,17.42A44,44,0,0,1,433.7,214.14Zm-14.16-11.33A16,16,0,0,0,414,190.38a19.82,19.82,0,0,0-13.42-4.68,18,18,0,0,0-12.44,4.62,19.3,19.3,0,0,0-6.16,12.5Z"/><path class="cls-1" d="M470.21,176.77a24.23,24.23,0,0,1,12.13-2.89v14.53h-3.57q-8.25,0-12.5,4.19T462,207.13v35.71H448V175h14v9.85A22,22,0,0,1,470.21,176.77Z"/><path class="cls-1" d="M543.85,177.2a23.67,23.67,0,0,1,9.91,9.85,32.42,32.42,0,0,1,3.57,15.76v40H543.42V204.91q0-9.11-4.56-14t-12.44-4.86q-7.88,0-12.5,4.86t-4.62,14v37.93h-14V175h14v7.76a23.25,23.25,0,0,1,8.8-6.53,28.16,28.16,0,0,1,11.39-2.34A30.43,30.43,0,0,1,543.85,177.2Z"/><path class="cls-1" d="M636.88,214.14H585a18.82,18.82,0,0,0,6,13.05,19,19,0,0,0,13.3,4.93q11.33,0,16-9.48h15.15A30.57,30.57,0,0,1,624.38,238q-8.07,6-20,6a34.64,34.64,0,0,1-17.42-4.37,31.08,31.08,0,0,1-12.07-12.31,37.56,37.56,0,0,1-4.37-18.41,38.44,38.44,0,0,1,4.25-18.41,29.88,29.88,0,0,1,11.94-12.25,35.55,35.55,0,0,1,17.67-4.31,34.57,34.57,0,0,1,17.12,4.19,29.61,29.61,0,0,1,11.7,11.76,35.43,35.43,0,0,1,4.19,17.42A44,44,0,0,1,636.88,214.14Zm-14.16-11.33a16,16,0,0,0-5.54-12.44,19.82,19.82,0,0,0-13.42-4.68,18,18,0,0,0-12.44,4.62,19.3,19.3,0,0,0-6.16,12.5Z"/><path class="cls-1" d="M667.54,186.44V224q0,3.82,1.79,5.48t6.1,1.66H684v11.7H673q-9.48,0-14.53-4.43t-5-14.41V186.44h-8V175h8V158.12h14.16V175H684v11.45Z"/><path class="cls-1" d="M758.67,214.14H706.83a18.82,18.82,0,0,0,6,13.05,19,19,0,0,0,13.3,4.93q11.33,0,16-9.48h15.15A30.57,30.57,0,0,1,746.17,238q-8.07,6-20,6a34.64,34.64,0,0,1-17.42-4.37,31.08,31.08,0,0,1-12.07-12.31,37.56,37.56,0,0,1-4.37-18.41,38.45,38.45,0,0,1,4.25-18.41,29.88,29.88,0,0,1,11.95-12.25,35.55,35.55,0,0,1,17.67-4.31,34.57,34.57,0,0,1,17.12,4.19A29.6,29.6,0,0,1,755,189.82a35.43,35.43,0,0,1,4.19,17.42A44.13,44.13,0,0,1,758.67,214.14Zm-14.16-11.33A16,16,0,0,0,739,190.38a19.82,19.82,0,0,0-13.42-4.68,18,18,0,0,0-12.44,4.62,19.3,19.3,0,0,0-6.16,12.5Z"/><path class="cls-1" d="M783.23,241.05a25.18,25.18,0,0,1-10-7.88A19.63,19.63,0,0,1,769.26,222h14.53a9.9,9.9,0,0,0,4.13,7.2,15,15,0,0,0,9.42,2.89q5.91,0,9.17-2.28a6.87,6.87,0,0,0,3.26-5.85,6,6,0,0,0-3.63-5.66,68.15,68.15,0,0,0-11.51-4.06,110.66,110.66,0,0,1-12.44-4.06,21.79,21.79,0,0,1-8.31-6q-3.51-4.06-3.51-10.71a16.7,16.7,0,0,1,3.2-9.91,21.31,21.31,0,0,1,9.17-7.08,34.27,34.27,0,0,1,13.73-2.59q11.57,0,18.66,5.85t7.57,15.95h-14a10,10,0,0,0-3.69-7.27q-3.33-2.71-9-2.71t-8.5,2.09a6.48,6.48,0,0,0-3,5.54,6,6,0,0,0,2,4.56,14,14,0,0,0,4.8,2.89q2.83,1,8.37,2.65a91.24,91.24,0,0,1,12.13,4,22.6,22.6,0,0,1,8.19,6q3.45,3.94,3.57,10.47a17.55,17.55,0,0,1-3.2,10.34,21.24,21.24,0,0,1-9.05,7.14,33.74,33.74,0,0,1-13.73,2.59A34.19,34.19,0,0,1,783.23,241.05Z"/></g></g></svg>