<svg xmlns="http://www.w3.org/2000/svg" viewBox="0 0 570.9 154.13"><defs><style>.cls-1{fill:#fff;}.cls-2{fill:#a1a4ff;}</style></defs><title>자산 7</title><g id="레이어_2" data-name="레이어 2"><g id="Layer_1" data-name="Layer 1"><path class="cls-1" d="M262,138a31.7,31.7,0,0,1-13.5-10.66,27.07,27.07,0,0,1-4.91-16.11h18.72a16.9,16.9,0,0,0,5.45,11.36q4.83,4.45,13.58,4.45,9.05,0,14.12-4.37a14.22,14.22,0,0,0,5.06-11.28,12.33,12.33,0,0,0-3.15-8.75,21.08,21.08,0,0,0-7.83-5.22,118.49,118.49,0,0,0-13-4,121.21,121.21,0,0,1-17-5.6A28,28,0,0,1,248.51,79q-4.6-6-4.6-16a28.36,28.36,0,0,1,4.6-16.11A29.4,29.4,0,0,1,261.4,36.3a46.83,46.83,0,0,1,19.18-3.68q15.5,0,25.4,7.75t11,21.25H297.62a14,14,0,0,0-5.52-10Q287,47.5,278.74,47.5q-7.52,0-12.28,3.84t-4.76,11a11.21,11.21,0,0,0,3,8.06,21.1,21.1,0,0,0,7.6,5,117.46,117.46,0,0,0,12.58,4,131.73,131.73,0,0,1,17.26,5.83,28.76,28.76,0,0,1,11.36,9q4.68,6.06,4.68,16.19a29.09,29.09,0,0,1-4.37,15.34,31.54,31.54,0,0,1-12.74,11.59q-8.36,4.37-19.72,4.37A47.73,47.73,0,0,1,262,138Z"/><path class="cls-1" d="M399.89,58.85a29.5,29.5,0,0,1,12,12.28q4.37,8.14,4.37,19.64v49.87H398.89V93.38q0-11.35-5.68-17.42t-15.5-6.06q-9.82,0-15.57,6.06t-5.75,17.42v47.26H338.89V27.09h17.49V65.91a29.33,29.33,0,0,1,11.28-8.29,37.72,37.72,0,0,1,15-2.91A35.47,35.47,0,0,1,399.89,58.85Z"/><path class="cls-1" d="M439.4,41.67a10.84,10.84,0,0,1-3.22-8,11,11,0,0,1,11.2-11.2,10.65,10.65,0,0,1,7.83,3.22,10.84,10.84,0,0,1,3.22,8,10.84,10.84,0,0,1-3.22,8,10.66,10.66,0,0,1-7.83,3.22A10.84,10.84,0,0,1,439.4,41.67ZM456,56.09v84.55H438.48V56.09Z"/><path class="cls-1" d="M514.43,70.36H498.78v70.28H481.13V70.36h-10V56.09h10v-6q0-14.58,7.75-21.25t24.32-6.67V36.76q-8,0-11.2,3t-3.22,10.36v6h15.65Z"/><path class="cls-1" d="M550.34,70.36v46.8q0,4.76,2.22,6.83t7.6,2.07H570.9v14.58H557.09q-11.82,0-18.11-5.52t-6.29-18V70.36h-10V56.09h10v-21h17.65v21H570.9V70.36Z"/><path class="cls-2" d="M35,86.09v63.78a4.26,4.26,0,0,0,4.26,4.26H134a4.26,4.26,0,0,0,4.26-4.26V86.09a4.26,4.26,0,0,1,4.26-4.26h28.23a4.26,4.26,0,0,0,2.87-7.42L94.7,2.76a10.63,10.63,0,0,0-14.29,0L1.41,74.4a4.26,4.26,0,0,0,2.86,7.42H30.75A4.26,4.26,0,0,1,35,86.09Z"/></g></g></svg>