<svg xmlns="http://www.w3.org/2000/svg" viewBox="0 0 348.32 269.67"><defs><style>.cls-1{fill:#fff;}</style></defs><title>자산 9</title><g id="레이어_2" data-name="레이어 2"><g id="Layer_1" data-name="Layer 1"><path class="cls-1" d="M59.14,5.49V16.83H36.58v73.4H22.68V16.83H0V5.49Z"/><path class="cls-1" d="M72.73,38.41a30.65,30.65,0,0,1,27.49-16.46,29.34,29.34,0,0,1,13.84,3.11,28.11,28.11,0,0,1,9.45,7.74V23h14V90.23h-14v-10a27.61,27.61,0,0,1-9.63,7.93,31.17,31.17,0,0,1-29.75-1.28,31.54,31.54,0,0,1-11.4-12.44,38.25,38.25,0,0,1-4.21-18.11A37.19,37.19,0,0,1,72.73,38.41Zm47.92,6.1a20.13,20.13,0,0,0-7.5-7.8,19.64,19.64,0,0,0-10-2.68,19.71,19.71,0,0,0-17.5,10.3,24,24,0,0,0-2.87,12,25,25,0,0,0,2.87,12.19,20.2,20.2,0,0,0,7.56,8,19.39,19.39,0,0,0,9.94,2.74,19.62,19.62,0,0,0,10-2.68,20,20,0,0,0,7.5-7.86,24.69,24.69,0,0,0,2.87-12.13A24.34,24.34,0,0,0,120.65,44.5Z"/><path class="cls-1" d="M179.42,25.06a30,30,0,0,1,13.72-3.11,31,31,0,0,1,16.09,4.27,30,30,0,0,1,11.34,12.13,38,38,0,0,1,4.15,18,38.73,38.73,0,0,1-4.15,18.11,31,31,0,0,1-11.4,12.44,31.92,31.92,0,0,1-29.87,1.4,26.59,26.59,0,0,1-9.57-7.8v9.75h-13.9V0h13.9V33A26.36,26.36,0,0,1,179.42,25.06ZM207.7,44.32a19.67,19.67,0,0,0-7.56-7.68A20.32,20.32,0,0,0,190.08,34a19.73,19.73,0,0,0-9.94,2.68,20,20,0,0,0-7.56,7.8,24.32,24.32,0,0,0-2.87,12.07,24.67,24.67,0,0,0,2.87,12.13,19.82,19.82,0,0,0,17.5,10.55,19.61,19.61,0,0,0,10.06-2.74,20.23,20.23,0,0,0,7.56-8,25,25,0,0,0,2.87-12.19A24,24,0,0,0,207.7,44.32Z"/><path class="cls-1" d="M296.39,243.4H207.84c-.67,0-1.22.38-1.22.84v10.84c0,.47.55.84,1.22.84h88.54c.67,0,1.22.38,1.22.84v9.55c0,.77,1.37,1.14,2.13.57l20.52-15.63a1.66,1.66,0,0,0,0-2.83l-20.52-15.65c-.75-.57-2.13-.21-2.13.57v9.21C297.61,243,297.06,243.4,296.39,243.4Z"/><path class="cls-1" d="M258.55,198.48H347.1c.67,0,1.22.38,1.22.84v10.84c0,.47-.55.84-1.22.84H258.55c-.67,0-1.22.38-1.22.84v9.55c0,.77-1.37,1.14-2.12.57l-20.52-15.63a1.66,1.66,0,0,1,0-2.83l20.52-15.65c.75-.57,2.13-.21,2.13.57v9.21C257.33,198.1,257.88,198.48,258.55,198.48Z"/><rect class="cls-1" x="206.75" y="184.74" width="13.01" height="39.94" rx="1.21" ry="1.21"/><rect class="cls-1" x="335.31" y="229.74" width="13.01" height="39.94" rx="1.21" ry="1.21"/></g></g></svg>