<svg xmlns="http://www.w3.org/2000/svg" viewBox="0 0 890.67 235.57"><defs><style>.cls-1{fill:#fff;}</style></defs><title>자산 9</title><g id="레이어_2" data-name="레이어 2"><g id="Layer_1" data-name="Layer 1"><path class="cls-1" d="M21.73,82A41.48,41.48,0,0,1,5.85,66.31,44,44,0,0,1,0,43.72,43.7,43.7,0,0,1,5.85,21.18,41.63,41.63,0,0,1,21.73,5.6a44.33,44.33,0,0,1,22-5.6,44.58,44.58,0,0,1,22.1,5.6A41.23,41.23,0,0,1,81.64,21.18a44.08,44.08,0,0,1,5.79,22.54,44.41,44.41,0,0,1-5.79,22.6A41.08,41.08,0,0,1,65.82,82a44.56,44.56,0,0,1-22.1,5.6A44.31,44.31,0,0,1,21.73,82ZM58.86,71.48A26.9,26.9,0,0,0,69.27,60.4,35.59,35.59,0,0,0,73,43.72a35.22,35.22,0,0,0-3.76-16.62,26.58,26.58,0,0,0-10.41-11,29.88,29.88,0,0,0-15.15-3.82,29.88,29.88,0,0,0-15.15,3.82,26.58,26.58,0,0,0-10.41,11,35.2,35.2,0,0,0-3.76,16.62A35.56,35.56,0,0,0,18.16,60.4,26.89,26.89,0,0,0,28.57,71.48a29.5,29.5,0,0,0,15.15,3.88A29.5,29.5,0,0,0,58.86,71.48Z"/><path class="cls-1" d="M125,20.93a29.72,29.72,0,0,1,13.92-3.2,30.77,30.77,0,0,1,27.71,16.62,38,38,0,0,1,4.19,18.1,39.11,39.11,0,0,1-4.19,18.29A31.29,31.29,0,0,1,155.1,83.31a30.35,30.35,0,0,1-16.19,4.5,29.43,29.43,0,0,1-13.79-3.14,30.85,30.85,0,0,1-9.85-7.82V119h-14V18.84h14v10A28.53,28.53,0,0,1,125,20.93Zm28.63,19.39A19.87,19.87,0,0,0,146,32.57a20.52,20.52,0,0,0-10.16-2.65,19.93,19.93,0,0,0-10,2.71,20.16,20.16,0,0,0-7.63,7.88,24.56,24.56,0,0,0-2.89,12.19A24.91,24.91,0,0,0,118.15,65a20,20,0,0,0,17.67,10.65A19.81,19.81,0,0,0,146,72.84a20.43,20.43,0,0,0,7.63-8.07,25.29,25.29,0,0,0,2.89-12.31A24.24,24.24,0,0,0,153.62,40.33Z"/><path class="cls-1" d="M246.41,58H194.56a18.82,18.82,0,0,0,6,13.05A19,19,0,0,0,213.9,76q11.33,0,16-9.48h15.15a30.56,30.56,0,0,1-11.14,15.33q-8.07,6-20,6a34.64,34.64,0,0,1-17.42-4.37A31.08,31.08,0,0,1,184.4,71.12,37.56,37.56,0,0,1,180,52.7a38.45,38.45,0,0,1,4.25-18.41A29.87,29.87,0,0,1,196.23,22a35.55,35.55,0,0,1,17.67-4.31A34.57,34.57,0,0,1,231,21.92a29.6,29.6,0,0,1,11.7,11.76A35.43,35.43,0,0,1,246.9,51.1,44.07,44.07,0,0,1,246.41,58ZM232.25,46.67a16,16,0,0,0-5.54-12.44,19.82,19.82,0,0,0-13.42-4.68,18,18,0,0,0-12.44,4.62,19.3,19.3,0,0,0-6.16,12.5Z"/><path class="cls-1" d="M309.27,21.06a23.66,23.66,0,0,1,9.91,9.85,32.42,32.42,0,0,1,3.57,15.76v40H308.84V48.76q0-9.11-4.56-14t-12.44-4.86q-7.88,0-12.5,4.86t-4.62,14V86.69h-14V18.84h14V26.6a23.25,23.25,0,0,1,8.8-6.53,28.16,28.16,0,0,1,11.39-2.34A30.43,30.43,0,0,1,309.27,21.06Z"/><path class="cls-1" d="M385.31,84.54A25.44,25.44,0,0,1,374.47,76,21.72,21.72,0,0,1,370.53,63h15a13.56,13.56,0,0,0,4.37,9.11q3.88,3.57,10.9,3.57,7.26,0,11.33-3.51a11.41,11.41,0,0,0,4.06-9.05,9.89,9.89,0,0,0-2.52-7A16.92,16.92,0,0,0,407.41,52,95.24,95.24,0,0,0,397,48.76a97.15,97.15,0,0,1-13.61-4.5,22.47,22.47,0,0,1-8.93-7.08q-3.69-4.8-3.69-12.81a22.76,22.76,0,0,1,3.69-12.93A23.59,23.59,0,0,1,384.81,3a37.57,37.57,0,0,1,15.39-3q12.44,0,20.38,6.22t8.8,17.06H413.88a11.24,11.24,0,0,0-4.43-8q-4.06-3.32-10.71-3.32A15.21,15.21,0,0,0,388.88,15q-3.82,3.08-3.82,8.87a9,9,0,0,0,2.4,6.46,16.94,16.94,0,0,0,6.1,4,94.33,94.33,0,0,0,10.1,3.2,105.72,105.72,0,0,1,13.85,4.68,23.08,23.08,0,0,1,9.11,7.2q3.76,4.87,3.76,13a23.36,23.36,0,0,1-3.51,12.31A25.32,25.32,0,0,1,416.65,84a33.71,33.71,0,0,1-15.82,3.51A38.3,38.3,0,0,1,385.31,84.54Z"/><path class="cls-1" d="M459.07,83.43a31.4,31.4,0,0,1-12.19-12.31,37.15,37.15,0,0,1-4.43-18.41A36.44,36.44,0,0,1,447,34.36,31.47,31.47,0,0,1,459.44,22a38.12,38.12,0,0,1,35.22,0,31.49,31.49,0,0,1,12.44,12.31,36.45,36.45,0,0,1,4.56,18.35A35.69,35.69,0,0,1,507,71.05a32.4,32.4,0,0,1-12.75,12.37,36.73,36.73,0,0,1-17.79,4.37A34.74,34.74,0,0,1,459.07,83.43ZM486.59,73a19.71,19.71,0,0,0,7.7-7.76,24.94,24.94,0,0,0,3-12.56,25.47,25.47,0,0,0-2.83-12.5,19.14,19.14,0,0,0-7.51-7.7,20.55,20.55,0,0,0-10.1-2.59,20.2,20.2,0,0,0-10,2.59,18.46,18.46,0,0,0-7.33,7.7,26.41,26.41,0,0,0-2.71,12.5q0,11,5.6,16.93a18.51,18.51,0,0,0,14.1,6A20.89,20.89,0,0,0,486.59,73Z"/><path class="cls-1" d="M587,18.84V86.69H573v-8a22.71,22.71,0,0,1-8.68,6.59,27.54,27.54,0,0,1-11.39,2.4,30.42,30.42,0,0,1-14.35-3.33,24,24,0,0,1-10-9.85,32,32,0,0,1-3.63-15.76V18.84h13.92v37.8q0,9.11,4.56,14t12.44,4.86q7.88,0,12.5-4.86t4.62-14V18.84Z"/><path class="cls-1" d="M627.71,20.63a24.22,24.22,0,0,1,12.13-2.89V32.26h-3.57q-8.25,0-12.5,4.19T619.52,51V86.69h-14V18.84h14v9.85A22,22,0,0,1,627.71,20.63Z"/><path class="cls-1" d="M652.34,34.29A30.22,30.22,0,0,1,664.1,22a34,34,0,0,1,17.24-4.31q12.31,0,20.38,5.85t10.9,16.69H697.47a16,16,0,0,0-5.91-7.88,17.46,17.46,0,0,0-10.22-2.83q-8.62,0-13.73,6.09T662.49,52.7q0,11,5.11,17.12T681.34,76q12.19,0,16.13-10.71h15.15A30.32,30.32,0,0,1,701.53,81.7q-8.13,6.1-20.2,6.1a33.63,33.63,0,0,1-17.24-4.37,30.62,30.62,0,0,1-11.76-12.31,38.45,38.45,0,0,1-4.25-18.41A38.45,38.45,0,0,1,652.34,34.29Z"/><path class="cls-1" d="M788.35,58H736.5a18.82,18.82,0,0,0,6,13.05A19,19,0,0,0,755.84,76q11.33,0,16-9.48H787a30.56,30.56,0,0,1-11.14,15.33q-8.07,6-20,6a34.64,34.64,0,0,1-17.42-4.37,31.08,31.08,0,0,1-12.07-12.31A37.56,37.56,0,0,1,722,52.7a38.45,38.45,0,0,1,4.25-18.41A29.87,29.87,0,0,1,738.16,22a35.55,35.55,0,0,1,17.67-4.31A34.57,34.57,0,0,1,773,21.92a29.6,29.6,0,0,1,11.7,11.76,35.43,35.43,0,0,1,4.19,17.42A44.09,44.09,0,0,1,788.35,58ZM774.18,46.67a16,16,0,0,0-5.54-12.44,19.82,19.82,0,0,0-13.42-4.68,18,18,0,0,0-12.44,4.62,19.3,19.3,0,0,0-6.16,12.5Z"/><path class="cls-1" d="M5.85,169a41.63,41.63,0,0,1,15.89-15.58,44.33,44.33,0,0,1,22-5.6A44.66,44.66,0,0,1,68,154.48a38.22,38.22,0,0,1,15.45,19H66.62a22.62,22.62,0,0,0-9.24-10.1,27.4,27.4,0,0,0-13.67-3.33,29.88,29.88,0,0,0-15.15,3.82,26.58,26.58,0,0,0-10.41,11,38.67,38.67,0,0,0,0,33.25,27,27,0,0,0,10.41,11A29.5,29.5,0,0,0,43.72,223a27.4,27.4,0,0,0,13.67-3.33,22.61,22.61,0,0,0,9.24-10.1H83.49a37.89,37.89,0,0,1-15.45,19,45,45,0,0,1-24.32,6.65,44.22,44.22,0,0,1-22-5.6A41.76,41.76,0,0,1,5.85,214a46.33,46.33,0,0,1,0-45.07Z"/><path class="cls-1" d="M113.91,143.34v91.12h-14V143.34Z"/><path class="cls-1" d="M144.44,231.2a31.4,31.4,0,0,1-12.19-12.31,37.15,37.15,0,0,1-4.43-18.41,36.43,36.43,0,0,1,4.56-18.35,31.47,31.47,0,0,1,12.44-12.31,38.12,38.12,0,0,1,35.22,0,31.49,31.49,0,0,1,12.44,12.31A36.45,36.45,0,0,1,197,200.48a35.69,35.69,0,0,1-4.68,18.35A32.4,32.4,0,0,1,179.6,231.2a36.74,36.74,0,0,1-17.79,4.37A34.74,34.74,0,0,1,144.44,231.2ZM172,220.79a19.71,19.71,0,0,0,7.7-7.76,24.94,24.94,0,0,0,3-12.56,25.47,25.47,0,0,0-2.83-12.5,19.14,19.14,0,0,0-7.51-7.7,20.55,20.55,0,0,0-10.1-2.59,20.2,20.2,0,0,0-10,2.59,18.46,18.46,0,0,0-7.33,7.7,26.41,26.41,0,0,0-2.71,12.5q0,11,5.6,16.93a18.51,18.51,0,0,0,14.1,6A20.89,20.89,0,0,0,172,220.79Z"/><path class="cls-1" d="M272.39,166.61v67.85h-14v-8a22.71,22.71,0,0,1-8.68,6.59,27.54,27.54,0,0,1-11.39,2.4,30.42,30.42,0,0,1-14.35-3.33,24,24,0,0,1-10-9.85,31.94,31.94,0,0,1-3.63-15.76v-39.9h13.92v37.8q0,9.11,4.56,14t12.44,4.86q7.88,0,12.5-4.86t4.62-14v-37.8Z"/><path class="cls-1" d="M290.43,182.13a31,31,0,0,1,27.89-16.62,31.83,31.83,0,0,1,13.11,2.89,26.84,26.84,0,0,1,10.28,7.7V143.34h14.16v91.12H341.72V224.24a26.28,26.28,0,0,1-9.54,8.13,29.62,29.62,0,0,1-14,3.2,30.35,30.35,0,0,1-16.19-4.5,31.7,31.7,0,0,1-11.58-12.56,38.63,38.63,0,0,1-4.25-18.29A37.55,37.55,0,0,1,290.43,182.13Zm48.4,6.16a20.33,20.33,0,0,0-7.57-7.88,19.83,19.83,0,0,0-10.1-2.71,19.91,19.91,0,0,0-17.67,10.41,24.22,24.22,0,0,0-2.89,12.13,25.26,25.26,0,0,0,2.89,12.31,20.39,20.39,0,0,0,7.63,8.07,19.58,19.58,0,0,0,10,2.77,19.81,19.81,0,0,0,10.1-2.71,20.21,20.21,0,0,0,7.57-7.94,24.93,24.93,0,0,0,2.89-12.25A24.59,24.59,0,0,0,338.82,188.28Z"/><path class="cls-1" d="M419,232.31a25.45,25.45,0,0,1-10.84-8.56,21.72,21.72,0,0,1-3.94-12.93h15a13.56,13.56,0,0,0,4.37,9.11q3.88,3.57,10.9,3.57,7.26,0,11.33-3.51a11.41,11.41,0,0,0,4.06-9.05,9.89,9.89,0,0,0-2.52-7,16.92,16.92,0,0,0-6.28-4.19,95.23,95.23,0,0,0-10.41-3.2,97.15,97.15,0,0,1-13.61-4.5,22.47,22.47,0,0,1-8.93-7.08q-3.69-4.8-3.69-12.81a22.76,22.76,0,0,1,3.69-12.93,23.59,23.59,0,0,1,10.34-8.5,37.57,37.57,0,0,1,15.39-3q12.44,0,20.38,6.22t8.8,17.06H447.62a11.24,11.24,0,0,0-4.43-8q-4.06-3.32-10.71-3.32a15.21,15.21,0,0,0-9.85,3.08q-3.82,3.08-3.82,8.87a9,9,0,0,0,2.4,6.46,16.94,16.94,0,0,0,6.1,4,94.32,94.32,0,0,0,10.1,3.2A105.71,105.71,0,0,1,451.25,190a23.08,23.08,0,0,1,9.11,7.2q3.76,4.87,3.76,13a23.36,23.36,0,0,1-3.51,12.31,25.32,25.32,0,0,1-10.22,9.3,33.71,33.71,0,0,1-15.82,3.51A38.3,38.3,0,0,1,419,232.31Z"/><path class="cls-1" d="M492.81,231.2a31.4,31.4,0,0,1-12.19-12.31,37.15,37.15,0,0,1-4.43-18.41,36.43,36.43,0,0,1,4.56-18.35,31.47,31.47,0,0,1,12.44-12.31,38.12,38.12,0,0,1,35.22,0,31.49,31.49,0,0,1,12.44,12.31,36.45,36.45,0,0,1,4.56,18.35,35.69,35.69,0,0,1-4.68,18.35A32.4,32.4,0,0,1,528,231.2a36.74,36.74,0,0,1-17.79,4.37A34.74,34.74,0,0,1,492.81,231.2Zm27.52-10.41A19.71,19.71,0,0,0,528,213a24.94,24.94,0,0,0,3-12.56,25.47,25.47,0,0,0-2.83-12.5,19.14,19.14,0,0,0-7.51-7.7,20.55,20.55,0,0,0-10.1-2.59,20.2,20.2,0,0,0-10,2.59,18.46,18.46,0,0,0-7.33,7.7,26.41,26.41,0,0,0-2.71,12.5q0,11,5.6,16.93a18.51,18.51,0,0,0,14.1,6A20.89,20.89,0,0,0,520.33,220.79Z"/><path class="cls-1" d="M573.34,143.34v91.12h-14V143.34Z"/><path class="cls-1" d="M653.26,166.61v67.85h-14v-8a22.71,22.71,0,0,1-8.68,6.59,27.54,27.54,0,0,1-11.39,2.4,30.42,30.42,0,0,1-14.35-3.33,24,24,0,0,1-10-9.85,31.94,31.94,0,0,1-3.63-15.76v-39.9h13.92v37.8q0,9.11,4.56,14t12.44,4.86q7.88,0,12.5-4.86t4.62-14v-37.8Z"/><path class="cls-1" d="M688.11,178.06v37.56q0,3.82,1.79,5.48t6.1,1.66h8.62v11.7H693.53Q684,234.46,679,230t-5-14.41V178.06h-8V166.61h8V149.74h14.16v16.87h16.5v11.45Z"/><path class="cls-1" d="M718.28,155a9,9,0,0,1,6.4-15.39,8.55,8.55,0,0,1,6.28,2.59A9.22,9.22,0,0,1,731,155a8.55,8.55,0,0,1-6.28,2.59A8.7,8.7,0,0,1,718.28,155Zm13.3,11.58v67.85h-14V166.61Z"/><path class="cls-1" d="M762.11,231.2a31.4,31.4,0,0,1-12.19-12.31,37.15,37.15,0,0,1-4.43-18.41A36.43,36.43,0,0,1,750,182.13a31.47,31.47,0,0,1,12.44-12.31,38.12,38.12,0,0,1,35.22,0,31.49,31.49,0,0,1,12.44,12.31,36.45,36.45,0,0,1,4.56,18.35A35.69,35.69,0,0,1,810,218.82a32.4,32.4,0,0,1-12.75,12.37,36.74,36.74,0,0,1-17.79,4.37A34.74,34.74,0,0,1,762.11,231.2Zm27.52-10.41a19.71,19.71,0,0,0,7.7-7.76,24.94,24.94,0,0,0,3-12.56,25.47,25.47,0,0,0-2.83-12.5,19.14,19.14,0,0,0-7.51-7.7,20.55,20.55,0,0,0-10.1-2.59,20.2,20.2,0,0,0-10,2.59,18.46,18.46,0,0,0-7.33,7.7,26.41,26.41,0,0,0-2.71,12.5q0,11,5.6,16.93a18.51,18.51,0,0,0,14.1,6A20.89,20.89,0,0,0,789.64,220.79Z"/><path class="cls-1" d="M877.19,168.83a23.66,23.66,0,0,1,9.91,9.85,32.41,32.41,0,0,1,3.57,15.76v40H876.76V196.54q0-9.11-4.56-14t-12.44-4.86q-7.88,0-12.5,4.86t-4.62,14v37.93h-14V166.61h14v7.76a23.25,23.25,0,0,1,8.8-6.53,28.16,28.16,0,0,1,11.39-2.34A30.43,30.43,0,0,1,877.19,168.83Z"/></g></g></svg>