<svg xmlns="http://www.w3.org/2000/svg" viewBox="0 0 281.96 238.54"><defs><style>.cls-1{fill:#fff;}</style></defs><title>자산 3</title><g id="레이어_2" data-name="레이어 2"><g id="Layer_1" data-name="Layer 1"><path class="cls-1" d="M50.78,90H10.52a8,8,0,0,0-8,8v132.6a8,8,0,0,0,8,8H50.78a8,8,0,0,0,8-8V98A8,8,0,0,0,50.78,90Z"/><circle class="cls-1" cx="30.65" cy="30.65" r="30.65"/><path class="cls-1" d="M274,.26H95.17a8,8,0,0,0-8,8V48.49a8,8,0,0,0,8,8h53.36a8,8,0,0,1,8,8V230.57a8,8,0,0,0,8,8h40.26a8,8,0,0,0,8-8V64.42a8,8,0,0,1,8-8H274a8,8,0,0,0,8-8V8.23A8,8,0,0,0,274,.26Z"/></g></g></svg>