<svg xmlns="http://www.w3.org/2000/svg" viewBox="0 0 697.3 107.96"><defs><style>.cls-1{fill:#fff;}</style></defs><title>자산 18</title><g id="레이어_2" data-name="레이어 2"><g id="Layer_1" data-name="Layer 1"><path class="cls-1" d="M670.43,0H616.2a26.87,26.87,0,0,0-26.87,26.87V81.1A26.87,26.87,0,0,0,616.2,108h54.23A26.87,26.87,0,0,0,697.3,81.1V26.87A26.87,26.87,0,0,0,670.43,0ZM627.89,78.89a1.78,1.78,0,0,1-1.78,1.78h-9a1.78,1.78,0,0,1-1.78-1.78V49.22a1.78,1.78,0,0,1,1.78-1.78h9a1.78,1.78,0,0,1,1.78,1.78ZM621.6,41a6.86,6.86,0,1,1,6.86-6.86A6.86,6.86,0,0,1,621.6,41Zm56.24-2.87a1.78,1.78,0,0,1-1.78,1.78H664.12a1.78,1.78,0,0,0-1.78,1.78V78.89a1.78,1.78,0,0,1-1.78,1.78h-9a1.78,1.78,0,0,1-1.78-1.78V41.71A1.78,1.78,0,0,0,648,39.92H636a1.78,1.78,0,0,1-1.78-1.78v-9A1.78,1.78,0,0,1,636,27.35h40a1.78,1.78,0,0,1,1.78,1.78Z"/><path class="cls-1" d="M15.81,22.47C27.31,14.69,45,18.18,56.57,26.32a1.75,1.75,0,0,0,2.49-.44l3-4.47a1.81,1.81,0,0,0-.42-2.48C44.78,7,15.09,3.3,3.92,23.09c-7.78,17,3.53,30.21,20.61,33.59l1.84.46c12.07,3.13,32,6.13,24.63,23.43-8.88,14.29-32.55,9.6-45.06.48a1.76,1.76,0,0,0-2.51.4L.34,85.91a1.82,1.82,0,0,0,.32,2.46C19.26,103.06,60.43,104.31,61.34,74c.74-17.77-18.89-22.2-32.65-25.46-6.33-1.77-14-3.44-17.14-9.44C9.25,33.75,10.82,25.86,15.81,22.47Z"/><path class="cls-1" d="M75.05,47.12V75.24A21.83,21.83,0,0,0,96.88,97.07H132a1.79,1.79,0,0,0,1.79-1.79V89.9A1.79,1.79,0,0,0,132,88.11H96.88A12.86,12.86,0,0,1,84,75.24V56.08h35.41a1.79,1.79,0,0,0,1.79-1.79V48.91a1.79,1.79,0,0,0-1.79-1.79H84v-26a1.79,1.79,0,0,1,1.79-1.79H132a1.79,1.79,0,0,0,1.79-1.79V12.11A1.79,1.79,0,0,0,132,10.32H76.85a1.79,1.79,0,0,0-1.79,1.79Z"/><path class="cls-1" d="M187.14,29.5a25.12,25.12,0,0,1,23.76,6.11,1.78,1.78,0,0,0,2.5,0l11-11a1.83,1.83,0,0,0,0-2.59,44.43,44.43,0,1,0,0,63.91,1.83,1.83,0,0,0,0-2.59l-11-11a1.77,1.77,0,0,0-2.49,0,25.07,25.07,0,0,1-17.28,6.94,25.31,25.31,0,0,1-6.48-49.78Z"/><path class="cls-1" d="M342.34,9.55A44.43,44.43,0,1,0,386.76,54,44.48,44.48,0,0,0,342.34,9.55Zm0,69.73A25.3,25.3,0,1,1,367.64,54,25.33,25.33,0,0,1,342.34,79.28Z"/><path class="cls-1" d="M455.37,58.38a19.74,19.74,0,0,1-23.85,19.28C422.31,75.77,416,67.21,416,57.8V12.49a1.79,1.79,0,0,0-1.79-1.79H398.63a1.79,1.79,0,0,0-1.79,1.79V57c0,19.73,14.15,37.35,33.72,39.86a38.88,38.88,0,0,0,43.94-38.5V12.49a1.79,1.79,0,0,0-1.79-1.79H457.17a1.79,1.79,0,0,0-1.79,1.79Z"/><path class="cls-1" d="M255.86,69.21a9.7,9.7,0,0,1-.11-1.08V12.49A1.79,1.79,0,0,0,254,10.69H238.42a1.79,1.79,0,0,0-1.79,1.79V68.14a29.24,29.24,0,0,0,29.07,29.07h26a1.79,1.79,0,0,0,1.79-1.79V79.88a1.79,1.79,0,0,0-1.79-1.79h-26A9.93,9.93,0,0,1,255.86,69.21Z"/><path class="cls-1" d="M522.42,10.75h-34a1.79,1.79,0,0,0-1.79,1.79V95.42a1.79,1.79,0,0,0,1.79,1.79h35.46a43.28,43.28,0,0,0,42.86-48.92C564,26.5,544.39,10.75,522.42,10.75Zm.43,67.33H507.59a1.79,1.79,0,0,1-1.79-1.79V31.67a1.79,1.79,0,0,1,1.79-1.79h16.34a24.13,24.13,0,0,1,24,26.51C546.69,68.91,535.43,78.08,522.85,78.08Z"/></g></g></svg>