<svg xmlns="http://www.w3.org/2000/svg" viewBox="0 0 756.26 106.27"><defs><style>.cls-1{fill:#fff;}</style></defs><title>자산 16</title><g id="레이어_2" data-name="레이어 2"><g id="Layer_1" data-name="Layer 1"><path class="cls-1" d="M729.82,0H676.44A26.44,26.44,0,0,0,650,26.44V79.82a26.44,26.44,0,0,0,26.45,26.44h53.38a26.44,26.44,0,0,0,26.44-26.44V26.44A26.44,26.44,0,0,0,729.82,0ZM687.95,77.65a1.75,1.75,0,0,1-1.75,1.75h-8.87a1.75,1.75,0,0,1-1.75-1.75V48.44a1.75,1.75,0,0,1,1.75-1.75h8.87a1.75,1.75,0,0,1,1.75,1.75Zm-6.19-37.29a6.75,6.75,0,1,1,6.75-6.75A6.75,6.75,0,0,1,681.76,40.36Zm55.36-2.82a1.75,1.75,0,0,1-1.75,1.75H723.61a1.75,1.75,0,0,0-1.75,1.75v36.6a1.75,1.75,0,0,1-1.75,1.75h-8.87a1.75,1.75,0,0,1-1.75-1.75V41.05a1.75,1.75,0,0,0-1.75-1.75H696a1.75,1.75,0,0,1-1.76-1.75V28.67A1.75,1.75,0,0,1,696,26.92h39.39a1.75,1.75,0,0,1,1.75,1.75Z"/><path class="cls-1" d="M69.82,10.29H1.77A1.76,1.76,0,0,0,0,12.05v5.29a1.76,1.76,0,0,0,1.77,1.77H29.61a1.76,1.76,0,0,1,1.77,1.76v73a1.76,1.76,0,0,0,1.76,1.76h5.29a1.76,1.76,0,0,0,1.76-1.76v-73A1.76,1.76,0,0,1,42,19.11H69.82a1.76,1.76,0,0,0,1.76-1.77V12.05A1.76,1.76,0,0,0,69.82,10.29Z"/><path class="cls-1" d="M111.88,43.84a30.45,30.45,0,1,0,0,42.79v7.29a1.76,1.76,0,0,0,1.76,1.76h5.29a1.76,1.76,0,0,0,1.76-1.76V36.55a1.76,1.76,0,0,0-1.76-1.77h-5.29a1.76,1.76,0,0,0-1.76,1.77ZM94.49,86.45a21.64,21.64,0,1,1,17-17A21.67,21.67,0,0,1,94.49,86.45Z"/><path class="cls-1" d="M178,35.55a30.43,30.43,0,0,0-28.53,8.29V12.05a1.76,1.76,0,0,0-1.76-1.77h-5.29a1.76,1.76,0,0,0-1.76,1.77V93.91a1.76,1.76,0,0,0,1.76,1.76h5.29a1.76,1.76,0,0,0,1.76-1.76V86.62A30.45,30.45,0,1,0,178,35.55Zm-2.67,50.9a21.64,21.64,0,1,1,17-17A21.67,21.67,0,0,1,175.37,86.45Z"/><path class="cls-1" d="M254.12,29a24.73,24.73,0,0,1,23.39,6,1.75,1.75,0,0,0,2.46,0L290.8,24.23a1.8,1.8,0,0,0,0-2.55,43.73,43.73,0,1,0,0,62.9,1.8,1.8,0,0,0,0-2.55L280,71.2a1.74,1.74,0,0,0-2.45,0,24.68,24.68,0,0,1-17,6.83,24.91,24.91,0,0,1-6.38-49Z"/><path class="cls-1" d="M406.88,9.4a43.73,43.73,0,1,0,43.73,43.73A43.78,43.78,0,0,0,406.88,9.4Zm0,68.64a24.9,24.9,0,1,1,24.91-24.91A24.94,24.94,0,0,1,406.88,78Z"/><path class="cls-1" d="M518.14,57.46a19.43,19.43,0,0,1-23.48,19c-9.07-1.86-15.32-10.29-15.32-19.54V12.29a1.76,1.76,0,0,0-1.76-1.76H462.28a1.76,1.76,0,0,0-1.76,1.76V56.13c0,19.42,13.92,36.76,33.19,39.23A38.27,38.27,0,0,0,537,57.46V12.29a1.76,1.76,0,0,0-1.76-1.76H519.9a1.76,1.76,0,0,0-1.76,1.76Z"/><path class="cls-1" d="M321.76,68.13a9.57,9.57,0,0,1-.11-1.06V12.29a1.76,1.76,0,0,0-1.76-1.76H304.59a1.76,1.76,0,0,0-1.76,1.76V67.07a28.78,28.78,0,0,0,28.61,28.62H357a1.76,1.76,0,0,0,1.76-1.77V78.62A1.76,1.76,0,0,0,357,76.86H331.44A9.77,9.77,0,0,1,321.76,68.13Z"/><path class="cls-1" d="M584.13,10.58H550.71a1.76,1.76,0,0,0-1.76,1.76V93.92a1.76,1.76,0,0,0,1.76,1.77h34.9A42.6,42.6,0,0,0,627.8,47.53C625,26.09,605.75,10.58,584.13,10.58Zm.42,66.27h-15a1.76,1.76,0,0,1-1.76-1.77V31.17a1.76,1.76,0,0,1,1.76-1.76h16.08A23.75,23.75,0,0,1,609.22,55.5C608,67.83,596.94,76.86,584.56,76.86Z"/></g></g></svg>