<svg xmlns="http://www.w3.org/2000/svg" viewBox="0 0 845.67 106.27"><defs><style>.cls-1{fill:#fff;}</style></defs><title>자산 15</title><g id="레이어_2" data-name="레이어 2"><g id="Layer_1" data-name="Layer 1"><path class="cls-1" d="M819.22,0H765.84A26.44,26.44,0,0,0,739.4,26.44V79.82a26.44,26.44,0,0,0,26.44,26.44h53.38a26.44,26.44,0,0,0,26.44-26.44V26.44A26.44,26.44,0,0,0,819.22,0ZM777.35,77.65a1.75,1.75,0,0,1-1.75,1.75h-8.87A1.75,1.75,0,0,1,765,77.65V48.44a1.75,1.75,0,0,1,1.76-1.75h8.87a1.75,1.75,0,0,1,1.75,1.75Zm-6.19-37.29a6.75,6.75,0,1,1,6.75-6.75A6.75,6.75,0,0,1,771.16,40.36Zm55.36-2.82a1.75,1.75,0,0,1-1.75,1.75H813a1.75,1.75,0,0,0-1.75,1.75v36.6a1.75,1.75,0,0,1-1.75,1.75h-8.87a1.75,1.75,0,0,1-1.75-1.75V41.05a1.75,1.75,0,0,0-1.75-1.75H785.37a1.75,1.75,0,0,1-1.75-1.75V28.67a1.75,1.75,0,0,1,1.75-1.75h39.39a1.75,1.75,0,0,1,1.75,1.75Z"/><path class="cls-1" d="M605.68,78.42a24.91,24.91,0,1,1,16.72-43.29,1.73,1.73,0,0,0,2.42,0l10.83-10.83a1.8,1.8,0,0,0,0-2.57,43.75,43.75,0,1,0,.68,62.91,1.8,1.8,0,0,0,0-2.54L625.47,71.25a1.75,1.75,0,0,0-2.49,0A24.65,24.65,0,0,1,605.68,78.42Z"/><path class="cls-1" d="M43.81,9.57A43.81,43.81,0,1,0,87.63,53.38,43.86,43.86,0,0,0,43.81,9.57Zm0,78.8a35,35,0,1,1,35-35A35,35,0,0,1,43.81,88.37Z"/><path class="cls-1" d="M132.62,10.54H101.24a1.76,1.76,0,0,0-1.76,1.76V94a1.76,1.76,0,0,0,1.76,1.76h5.29A1.76,1.76,0,0,0,108.3,94V63h25.48a26.26,26.26,0,0,0,26.1-28.85C158.56,20.52,146.31,10.54,132.62,10.54Zm.47,43.63h-23a1.76,1.76,0,0,1-1.77-1.76V21.13a1.76,1.76,0,0,1,1.77-1.76h23.72a17.43,17.43,0,0,1,17.06,20.88C149.24,48.5,141.51,54.17,133.09,54.17Z"/><path class="cls-1" d="M396.06,52.54c-6.25-5.17-15.89-7-23.71-9.14-3.74-1.12-10.37-2.2-11.17-6-2.69-13,21.31-9.83,29.64-3.47a1.74,1.74,0,0,0,2.42-.18L403.06,22a1.79,1.79,0,0,0-.24-2.56c-16.75-12.94-47.1-15.15-58,5.1C336.5,42,348,57.8,366,61.22l1.45.36c4.87,1.32,16.82,3,18,7.74,3.43,14-21.2,10-29.62,3.58a1.75,1.75,0,0,0-2.43.18l-9.81,11.67a1.79,1.79,0,0,0,.23,2.55c16.51,12.82,47,15.29,58-5.1C406.65,72.73,405,59.14,396.06,52.54Z"/><path class="cls-1" d="M476.93,10.71H415a1.76,1.76,0,0,0-1.76,1.76v15.3A1.76,1.76,0,0,0,415,29.54h19.8a1.76,1.76,0,0,1,1.76,1.76v63A1.76,1.76,0,0,0,438.31,96H453.6a1.76,1.76,0,0,0,1.76-1.76v-63a1.76,1.76,0,0,1,1.76-1.76h19.8a1.76,1.76,0,0,0,1.77-1.77V12.47A1.76,1.76,0,0,0,476.93,10.71Z"/><path class="cls-1" d="M310.57,81.52l-50.21-70.3a1.76,1.76,0,0,0-1.44-.74h-8.07a1.76,1.76,0,0,0-1.77,1.77V94a1.76,1.76,0,0,0,1.77,1.76h5.29A1.76,1.76,0,0,0,257.92,94V23l51.43,72a1.76,1.76,0,0,0,1.44.74h6.85A1.76,1.76,0,0,0,319.4,94V12.25a1.76,1.76,0,0,0-1.76-1.77h-5.29a1.76,1.76,0,0,0-1.76,1.77Z"/><path class="cls-1" d="M716.44,10.48H697.11a1.77,1.77,0,0,0-1.29.56l-26,27.78-.47.44v-27a1.76,1.76,0,0,0-1.76-1.76H652.31a1.76,1.76,0,0,0-1.76,1.76V94a1.76,1.76,0,0,0,1.76,1.76H667.6A1.76,1.76,0,0,0,669.37,94V64l29.24,31.27a1.76,1.76,0,0,0,1.29.56h19.33a1.76,1.76,0,0,0,1.29-3L682,51.64l35.72-38.19A1.76,1.76,0,0,0,716.44,10.48Z"/><path class="cls-1" d="M505.76,11.89,477,93.43a1.76,1.76,0,0,0,1.66,2.35h16.21a1.76,1.76,0,0,0,1.66-1.18l5-14.31a1.77,1.77,0,0,1,1.66-1.18h27.61a1.76,1.76,0,0,1,1.66,1.18l5,14.31a1.76,1.76,0,0,0,1.66,1.18h16.22a1.76,1.76,0,0,0,1.66-2.35L528.42,11.89a1.76,1.76,0,0,0-1.66-1.18H507.43A1.76,1.76,0,0,0,505.76,11.89Zm3.32,47.23,7.17-20.36a.88.88,0,0,1,1.66,0l7.17,20.36a.88.88,0,0,1-.83,1.18H509.91A.88.88,0,0,1,509.08,59.12Z"/><path class="cls-1" d="M172.17,46.76V74.44a21.49,21.49,0,0,0,21.49,21.49h34.55A1.76,1.76,0,0,0,230,94.17V88.87a1.76,1.76,0,0,0-1.77-1.76H193.67A12.67,12.67,0,0,1,181,74.44V55.58h34.86a1.76,1.76,0,0,0,1.76-1.77V48.52a1.76,1.76,0,0,0-1.76-1.77H181V21.13a1.76,1.76,0,0,1,1.76-1.76h45.45A1.76,1.76,0,0,0,230,17.6V12.3a1.76,1.76,0,0,0-1.77-1.76H173.94a1.76,1.76,0,0,0-1.76,1.76Z"/></g></g></svg>