<svg xmlns="http://www.w3.org/2000/svg" viewBox="0 0 548.5 108"><defs><style>.cls-1{fill:#fff;}</style></defs><title>자산 12</title><g id="레이어_2" data-name="레이어 2"><g id="Layer_1" data-name="Layer 1"><path class="cls-1" d="M521.63,0H467.36A26.87,26.87,0,0,0,440.5,26.87V81.13A26.87,26.87,0,0,0,467.36,108h54.27A26.87,26.87,0,0,0,548.5,81.13V26.87A26.86,26.86,0,0,0,521.63,0ZM476.71,81h-9.44a1.78,1.78,0,0,1-1.78-1.78V49.78A1.78,1.78,0,0,1,467.28,48h9.44a1.78,1.78,0,0,1,1.78,1.78V79.22A1.78,1.78,0,0,1,476.71,81ZM472.4,41.09a6.86,6.86,0,1,1,6.86-6.86A6.86,6.86,0,0,1,472.4,41.09Zm56.1-2.88A1.78,1.78,0,0,1,526.71,40H515.28a1.78,1.78,0,0,0-1.78,1.78V79.22A1.78,1.78,0,0,1,511.71,81h-9.44a1.78,1.78,0,0,1-1.78-1.78V41.78A1.78,1.78,0,0,0,498.71,40H486.28a1.78,1.78,0,0,1-1.78-1.78V28.78A1.78,1.78,0,0,1,486.28,27h40.44a1.78,1.78,0,0,1,1.78,1.78Z"/><path class="cls-1" d="M37.94,29.59A25.12,25.12,0,0,1,61.7,35.7a1.78,1.78,0,0,0,2.5,0l11-11a1.83,1.83,0,0,0,0-2.59,44.43,44.43,0,1,0,0,63.91,1.83,1.83,0,0,0,0-2.59l-11-11a1.77,1.77,0,0,0-2.49,0,25.07,25.07,0,0,1-17.28,6.94,25.31,25.31,0,0,1-6.48-49.78Z"/><path class="cls-1" d="M193.14,9.64a44.43,44.43,0,1,0,44.43,44.43A44.48,44.48,0,0,0,193.14,9.64Zm0,69.73a25.3,25.3,0,1,1,25.3-25.3A25.33,25.33,0,0,1,193.14,79.37Z"/><path class="cls-1" d="M306.17,58.47a19.74,19.74,0,0,1-23.85,19.28c-9.21-1.89-15.56-10.45-15.56-19.85V12.57A1.79,1.79,0,0,0,265,10.78H249.43a1.79,1.79,0,0,0-1.79,1.79V57.11c0,19.73,14.15,37.35,33.72,39.86a38.88,38.88,0,0,0,43.94-38.5V12.57a1.79,1.79,0,0,0-1.79-1.79H308a1.79,1.79,0,0,0-1.79,1.79Z"/><path class="cls-1" d="M106.66,69.3a9.7,9.7,0,0,1-.11-1.08V12.57a1.79,1.79,0,0,0-1.79-1.79H89.22a1.79,1.79,0,0,0-1.79,1.79V68.23A29.24,29.24,0,0,0,116.49,97.3h26a1.79,1.79,0,0,0,1.79-1.79V80a1.79,1.79,0,0,0-1.79-1.79h-26A9.93,9.93,0,0,1,106.66,69.3Z"/><path class="cls-1" d="M373.22,10.84h-34a1.79,1.79,0,0,0-1.79,1.79V95.51a1.79,1.79,0,0,0,1.79,1.79h35.46a43.28,43.28,0,0,0,42.86-48.92C414.79,26.59,395.19,10.84,373.22,10.84Zm.43,67.33H358.39a1.79,1.79,0,0,1-1.79-1.79V31.76A1.79,1.79,0,0,1,358.39,30h16.34a24.13,24.13,0,0,1,24,26.51C397.49,69,386.23,78.17,373.65,78.17Z"/></g></g></svg>