<svg xmlns="http://www.w3.org/2000/svg" viewBox="0 0 307.97 300.85"><defs><style>.cls-1{fill:#fff;}</style></defs><title>자산 6</title><g id="레이어_2" data-name="레이어 2"><g id="Layer_1" data-name="Layer 1"><path class="cls-1" d="M300.49,180.37l-32.19-7.14a115.22,115.22,0,0,0-18.89-80.7l25.53-20.67a9.54,9.54,0,1,0-12-14.84L237.4,77.69a115.14,115.14,0,0,0-74-35.35V9.89A9.77,9.77,0,0,0,154,0a9.54,9.54,0,0,0-9.7,9.54V42.37A115.16,115.16,0,0,0,69.76,78.56L43.89,58A9.54,9.54,0,1,0,32,72.92l25.9,20.6A115.26,115.26,0,0,0,39.8,174.17L7.4,181.65a9.54,9.54,0,1,0,4.29,18.6l32.44-7.49A116,116,0,0,0,95.86,257L81.47,287.19a9.54,9.54,0,1,0,17.23,8.22l14.37-30.14a115.37,115.37,0,0,0,82.52-.27l14.59,29.91a9.54,9.54,0,1,0,17.16-8.37l-14.59-29.91a116,116,0,0,0,51.37-64.79L296.36,199a9.54,9.54,0,0,0,4.13-18.64Zm-50.19-23a96.84,96.84,0,0,1-.71,11.72l-58.07-12.87a8.05,8.05,0,0,1-3.32-14.12l46.32-37.51A95.75,95.75,0,0,1,250.3,157.36ZM222.51,89.75,176.5,127a8,8,0,0,1-13.12-6.26V61.51A96.08,96.08,0,0,1,222.51,89.75Zm-68.52,48a19.59,19.59,0,1,1-19.59,19.59A19.59,19.59,0,0,1,154,137.78ZM144.3,61.53v59.62a8,8,0,0,1-13.06,6.3l-46.49-37A96.1,96.1,0,0,1,144.3,61.53ZM57.67,157.36a95.75,95.75,0,0,1,15.23-51.92l46.46,37a8,8,0,0,1-3.2,14.14L58.48,169.86A96.85,96.85,0,0,1,57.67,157.36Zm5.15,31.08,57.63-13.31a8,8,0,0,1,9.08,11.31l-25.42,53.29A96.82,96.82,0,0,1,62.82,188.45ZM154,253.68a95.88,95.88,0,0,1-32.66-5.7l25.43-53.31a8,8,0,0,1,14.5-.06l25.94,53.18A95.86,95.86,0,0,1,154,253.68Zm50.37-14.25-25.94-53.19a8,8,0,0,1,9-11.39l58,12.86A96.79,96.79,0,0,1,204.36,239.43Z"/></g></g></svg>