<svg xmlns="http://www.w3.org/2000/svg" viewBox="0 0 345.15 345.15"><defs><style>.cls-1{fill:#fff;}</style></defs><title>자산 15</title><g id="레이어_2" data-name="레이어 2"><g id="Layer_1" data-name="Layer 1"><path class="cls-1" d="M0,172.58A172.58,172.58,0,1,1,172.58,345.15,172.58,172.58,0,0,1,0,172.58ZM156.63,74.06v68a1.29,1.29,0,0,0,1.29,1.29h28.77a1.29,1.29,0,0,0,1.29-1.29v-68a1.29,1.29,0,0,1,1.29-1.29h8.58a1.29,1.29,0,0,0,.87-2.25l-24-21.76a3.23,3.23,0,0,0-4.34,0l-24,21.76a1.29,1.29,0,0,0,.87,2.25h8A1.29,1.29,0,0,1,156.63,74.06Zm31.89,197v-68a1.29,1.29,0,0,0-1.29-1.29H158.46a1.29,1.29,0,0,0-1.29,1.29v68a1.29,1.29,0,0,1-1.29,1.29h-8.57a1.29,1.29,0,0,0-.87,2.25l24,21.76a3.23,3.23,0,0,0,4.34,0l24-21.76a1.29,1.29,0,0,0-.87-2.25h-8A1.29,1.29,0,0,1,188.52,271.09Zm39.41-82.57h68a1.29,1.29,0,0,0,1.29-1.29V158.46a1.29,1.29,0,0,0-1.29-1.29h-68a1.29,1.29,0,0,1-1.29-1.29v-8.58a1.29,1.29,0,0,0-2.25-.87l-21.76,24a3.23,3.23,0,0,0,0,4.34l21.76,24a1.29,1.29,0,0,0,2.25-.87v-8A1.29,1.29,0,0,1,227.93,188.52ZM117.22,156.63h-68a1.29,1.29,0,0,0-1.29,1.29v28.77A1.29,1.29,0,0,0,49.2,188h68a1.29,1.29,0,0,1,1.29,1.29v8.57a1.29,1.29,0,0,0,2.25.87l21.76-24a3.23,3.23,0,0,0,0-4.34l-21.76-24a1.29,1.29,0,0,0-2.25.87v8A1.29,1.29,0,0,1,117.22,156.63Z"/></g></g></svg>