<svg xmlns="http://www.w3.org/2000/svg" viewBox="0 0 264 324"><defs><style>.cls-1{fill:#fff;}</style></defs><title>자산 13</title><g id="레이어_2" data-name="레이어 2"><g id="Layer_1" data-name="Layer 1"><path class="cls-1" d="M245.33,101H18.67A18.72,18.72,0,0,1,0,82.33V18.67A18.72,18.72,0,0,1,18.67,0H245.33A18.72,18.72,0,0,1,264,18.67V82.33A18.72,18.72,0,0,1,245.33,101ZM39.5,36A13.5,13.5,0,1,0,53,49.5,13.5,13.5,0,0,0,39.5,36ZM225.35,49h0a5,5,0,0,0-5-5h-140a5,5,0,0,0-5,5h0a5,5,0,0,0,5,5h140A5,5,0,0,0,225.35,49Z"/><path class="cls-1" d="M245.33,212H18.67A18.72,18.72,0,0,1,0,193.33V129.67A18.72,18.72,0,0,1,18.67,111H245.33A18.72,18.72,0,0,1,264,129.67v63.67A18.72,18.72,0,0,1,245.33,212ZM39.5,148A13.5,13.5,0,1,0,53,161.5,13.5,13.5,0,0,0,39.5,148Zm185.85,14h0a5,5,0,0,0-5-5h-140a5,5,0,0,0-5,5h0a5,5,0,0,0,5,5h140A5,5,0,0,0,225.35,162Z"/><path class="cls-1" d="M245.33,324H18.67A18.72,18.72,0,0,1,0,305.33V241.67A18.72,18.72,0,0,1,18.67,223H245.33A18.72,18.72,0,0,1,264,241.67v63.67A18.72,18.72,0,0,1,245.33,324ZM39.5,260A13.5,13.5,0,1,0,53,273.5,13.5,13.5,0,0,0,39.5,260Zm185.85,14h0a5,5,0,0,0-5-5h-140a5,5,0,0,0-5,5h0a5,5,0,0,0,5,5h140A5,5,0,0,0,225.35,274Z"/></g></g></svg>