<svg xmlns="http://www.w3.org/2000/svg" viewBox="0 0 274.67 274.67"><defs><style>.cls-1{fill:#fff;}</style></defs><title>자산 3</title><g id="레이어_2" data-name="레이어 2"><g id="Layer_1" data-name="Layer 1"><path class="cls-1" d="M268.71,112.09l-33.07-3.2a6.62,6.62,0,0,1-5.59-4.4,97.65,97.65,0,0,0-4.23-10.09,6.62,6.62,0,0,1,.82-7.11l21-25.47a6.6,6.6,0,0,0-.43-8.86L221.24,27a6.6,6.6,0,0,0-8.86-.43L186.72,47.72a6.62,6.62,0,0,1-7.07.84,97.68,97.68,0,0,0-10.12-4.15,6.62,6.62,0,0,1-4.45-5.6L161.91,6a6.6,6.6,0,0,0-6.57-6H118.65a6.6,6.6,0,0,0-6.57,6L108.89,39a6.62,6.62,0,0,1-4.4,5.59,97.64,97.64,0,0,0-10.09,4.23A6.62,6.62,0,0,1,87.28,48l-25.47-21a6.6,6.6,0,0,0-8.86.43L27,53.43a6.6,6.6,0,0,0-.43,8.86L47.72,87.94A6.62,6.62,0,0,1,48.55,95a97.61,97.61,0,0,0-4.15,10.12,6.62,6.62,0,0,1-5.6,4.45L6,112.76a6.6,6.6,0,0,0-6,6.57V156a6.6,6.6,0,0,0,6,6.57L39,165.78a6.61,6.61,0,0,1,5.59,4.4,97.72,97.72,0,0,0,4.23,10.09,6.62,6.62,0,0,1-.82,7.11l-21,25.47a6.6,6.6,0,0,0,.43,8.86l25.94,25.94a6.6,6.6,0,0,0,8.86.43L87.94,227a6.62,6.62,0,0,1,7.07-.84,97.68,97.68,0,0,0,10.12,4.15,6.62,6.62,0,0,1,4.45,5.6l3.18,32.84a6.6,6.6,0,0,0,6.57,6H156a6.6,6.6,0,0,0,6.57-6l3.2-33.07a6.62,6.62,0,0,1,4.4-5.59,97.64,97.64,0,0,0,10.09-4.23,6.62,6.62,0,0,1,7.11.82l25.47,21a6.6,6.6,0,0,0,8.86-.43l25.94-25.94a6.6,6.6,0,0,0,.43-8.86l-21.13-25.66a6.62,6.62,0,0,1-.84-7.07,97.57,97.57,0,0,0,4.15-10.12,6.62,6.62,0,0,1,5.6-4.45l32.84-3.18a6.6,6.6,0,0,0,6-6.57V118.66A6.6,6.6,0,0,0,268.71,112.09ZM137.33,186A48.67,48.67,0,1,1,186,137.33,48.67,48.67,0,0,1,137.33,186Z"/></g></g></svg>