<svg xmlns="http://www.w3.org/2000/svg" viewBox="0 0 361.36 275.22"><defs><style>.cls-1{fill:#fff;}</style></defs><title>자산 1</title><g id="레이어_2" data-name="레이어 2"><g id="Layer_1" data-name="Layer 1"><path class="cls-1" d="M294.68,0h-228A66.88,66.88,0,0,0,0,66.68V184.24a66.88,66.88,0,0,0,66.68,66.68h84.85c.12.14.25.29.38.42l21.57,21.57a7.85,7.85,0,0,0,11.1,0l21.57-21.57c.14-.14.26-.28.38-.42h88.15a66.88,66.88,0,0,0,66.68-66.68V66.68A66.88,66.88,0,0,0,294.68,0ZM175.49,102.83a22.63,22.63,0,1,1-22.63,22.63A22.63,22.63,0,0,1,175.49,102.83Zm-92,45.26a22.63,22.63,0,1,1,22.63-22.63A22.63,22.63,0,0,1,83.49,148.09Zm184,0a22.63,22.63,0,1,1,22.63-22.63A22.63,22.63,0,0,1,267.49,148.09Z"/></g></g></svg>