<svg xmlns="http://www.w3.org/2000/svg" viewBox="0 0 325.93 325.85"><defs><style>.cls-1{fill:#fff;}</style></defs><title>자산 6</title><g id="레이어_2" data-name="레이어 2"><g id="Layer_1" data-name="Layer 1"><path class="cls-1" d="M163,325.85a162.91,162.91,0,1,1,136-73.11A162.7,162.7,0,0,1,163,325.85Zm8.23-15.57,10.94-6.66c18.12-11,33.76-36.77,42.92-70.63a262.19,262.19,0,0,0,8.42-54.26l.41-7.58H171.19ZM92,171.15l.41,7.58A262.19,262.19,0,0,0,100.88,233c9.16,33.85,24.8,59.59,42.92,70.62l10.94,6.66V171.15ZM250,178a277.61,277.61,0,0,1-9.07,59.28,192.35,192.35,0,0,1-17.81,44.56l-12.38,21.84,22.07-12a146.55,146.55,0,0,0,75.77-112.59l.88-8H250.33ZM17.34,179.13A146.54,146.54,0,0,0,93.11,291.72l22.07,12L102.8,281.84A192.37,192.37,0,0,1,85,237.28,277.62,277.62,0,0,1,75.93,178l-.33-6.85H16.46Zm75.77-145A146.56,146.56,0,0,0,17.34,146.72l-.88,8H75.6l.33-6.85A277.65,277.65,0,0,1,85,88.57,192.41,192.41,0,0,1,102.8,44l12.38-21.84Zm130,9.87a192.35,192.35,0,0,1,17.81,44.56A277.67,277.67,0,0,1,250,147.85l.33,6.85h59.14l-.88-8A146.55,146.55,0,0,0,232.81,34.13l-22.07-12ZM171.19,154.7h62.69l-.41-7.58A262.18,262.18,0,0,0,225,92.86C215.89,59,200.24,33.26,182.13,22.23l-10.94-6.66ZM143.8,22.25C125.68,33.28,110,59,100.88,92.86a262.25,262.25,0,0,0-8.42,54.26L92,154.7h62.69V15.59Z"/></g></g></svg>